<svg id="Capa_1" enable-background="new 0 0 499.858 499.858" height="512" viewBox="0 0 499.858 499.858" width="512" xmlns="http://www.w3.org/2000/svg"><g><g><g><path d="m75.502 236.092v-206.092c0-11.046 8.954-20 20-20h235.871c5.304 0 10.391 2.107 14.142 5.858l72.983 72.983c3.751 3.751 5.858 8.838 5.858 14.142v366.876c0 11.046-8.954 20-20 20h-308.854c-11.046 0-20-8.954-20-20v-152.971" fill="#faf7f5"/></g><g><path d="m338.364 11.722v64.698c0 11.046 8.954 20 20 20h64.698" fill="#f0e6e2"/></g><path d="m222.377 190.131c.005 11.222.012 28.237.018 43.023-14.78.005-31.8.012-43.006.016-6.785.002-12.286 5.495-12.303 12.28l-.074 30.898c-.016 6.812 5.501 12.342 12.313 12.339 11.233-.005 28.274-.012 43.093-.018.006 14.793.013 31.824.018 43.041.003 6.796 5.512 12.302 12.308 12.302l30.891.003c6.801.001 12.313-5.513 12.311-12.314l-.016-43.056c14.761-.006 31.767-.013 42.974-.018 6.796-.003 12.302-5.512 12.302-12.308l.003-30.891c.001-6.8-5.512-12.313-12.312-12.311-11.21.004-28.215.01-42.988.016-.005-14.748-.012-31.744-.016-42.939-.002-6.785-5.495-12.286-12.28-12.303l-30.898-.074c-6.811-.016-12.341 5.502-12.338 12.314z" fill="#a0e5a5"/></g><g><path d="m425.569 81.77-72.983-72.985c-5.667-5.665-13.2-8.785-21.212-8.785h-235.872c-16.542 0-30 13.458-30 30v206.092c0 12.811 20 12.836 20 0v-206.092c0-5.514 4.486-10 10-10h232.861v56.421c0 16.542 13.458 30 30 30h55.992v363.438c0 5.514-4.486 10-10 10h-308.853c-5.514 0-10-4.486-10-10v-152.971c0-12.84-20-12.859-20 0v152.971c0 16.542 13.458 30 30 30h308.854c16.542 0 30-13.458 30-30v-366.877c0-8.014-3.121-15.547-8.787-21.212zm-77.205-5.349v-43.573l53.572 53.573h-43.572c-5.514 0-10-4.486-10-10z"/><path d="m67.776 281.693c4.949 7.352 16.616 4.86 18.163-3.842 1.631-9.174-9.691-15.348-16.559-9.115-3.624 3.289-4.318 8.885-1.604 12.957z"/><path d="m157.086 245.424-.074 30.898c-.03 12.103 10.226 22.363 22.317 22.363l33.093-.014.014 33.041c.005 12.294 10.012 22.297 22.307 22.299l30.891.003h.003c5.959 0 11.563-2.321 15.776-6.536 4.214-4.215 6.534-9.819 6.532-15.781l-.012-33.056 32.975-.015c12.294-.005 22.297-10.012 22.298-22.307l.003-30.892c.001-12.164-10.146-22.312-22.31-22.312-.002 0-.004 0-.007 0l-32.986.012-.012-32.938c-.004-12.266-9.988-22.269-22.256-22.299l-30.898-.074c-12.119 0-22.368 10.193-22.363 22.317l.014 33.022-33.005.012c-12.267.006-22.271 9.989-22.3 22.257zm65.312-2.271c5.452-.002 9.999-4.552 9.997-10.004l-.018-43.022c-.001-1.145 1.146-2.31 2.315-2.31l30.898.074c1.27.003 2.304 1.038 2.304 2.307l.016 42.938c.002 5.521 4.479 9.996 10 9.996h.003l42.987-.016c1.408.132 2.178.902 2.31 2.31l-.003 30.892c0 1.272-1.035 2.308-2.307 2.309l-42.975.019c-5.522.003-9.997 4.481-9.995 10.004l.016 43.056c.001 1.368-1.131 2.125-2.31 2.31l-30.891-.003c-1.273 0-2.309-1.035-2.31-2.307l-.018-43.041c-.002-5.522-4.479-9.996-10-9.996-.001 0-.003 0-.004 0l-43.094.018c-1.169 0-2.311-1.174-2.308-2.314l.074-30.899c.003-1.27 1.037-2.303 2.306-2.303z"/></g></g></svg>