<?xml version="1.0" encoding="UTF-8" standalone="no"?>
<svg
   xmlns:dc="http://purl.org/dc/elements/1.1/"
   xmlns:cc="http://creativecommons.org/ns#"
   xmlns:rdf="http://www.w3.org/1999/02/22-rdf-syntax-ns#"
   xmlns:svg="http://www.w3.org/2000/svg"
   xmlns="http://www.w3.org/2000/svg"
   xmlns:sodipodi="http://sodipodi.sourceforge.net/DTD/sodipodi-0.dtd"
   xmlns:inkscape="http://www.inkscape.org/namespaces/inkscape"
   version="1.1"
   width="512"
   height="512"
   x="0"
   y="0"
   viewBox="0 0 512 512"
   style="enable-background:new 0 0 512 512"
   xml:space="preserve"
   class=""
   id="svg24"
   sodipodi:docname="info.svg"
   inkscape:version="1.0.1 (3bc2e813f5, 2020-09-07)"><metadata
     id="metadata30"><rdf:RDF><cc:Work
         rdf:about=""><dc:format>image/svg+xml</dc:format><dc:type
           rdf:resource="http://purl.org/dc/dcmitype/StillImage" /></cc:Work></rdf:RDF></metadata><defs
     id="defs28" /><sodipodi:namedview
     pagecolor="#ffffff"
     bordercolor="#666666"
     borderopacity="1"
     objecttolerance="10"
     gridtolerance="10"
     guidetolerance="10"
     inkscape:pageopacity="0"
     inkscape:pageshadow="2"
     inkscape:window-width="1366"
     inkscape:window-height="705"
     id="namedview26"
     showgrid="false"
     inkscape:zoom="0.52539063"
     inkscape:cx="382.78735"
     inkscape:cy="175.38591"
     inkscape:window-x="-8"
     inkscape:window-y="32"
     inkscape:window-maximized="1"
     inkscape:current-layer="g22" /><g
     transform="matrix(1,0,0,1,0,2.842170943040401e-14)"
     id="g22"><path
       d="m 181.19539,242.33166 0.48217,-24.76261 c 0.19287,-9.76003 6.44788,-17.83514 14.60965,-18.868 l 102.54364,-12.94729 c 9.70906,-1.22588 18.14697,7.87687 18.0637,19.47832 l -1.63936,235.39873 17.41496,1.13197 c 8.66587,0.55816 15.44688,9.07667 15.44688,19.39486 v 20.50597 c 0,10.69899 -7.27633,19.38443 -16.27971,19.42616 l -130.83366,0.56859 c -9.12608,0.0365 -16.5076,-8.81584 -16.39802,-19.66611 l 0.21039,-20.31818 c 0.10514,-10.23994 6.87306,-18.62282 15.47316,-19.16533 l 18.55901,-1.16849 0.21042,-178.32004 -22.0394,-0.81899 c -8.96829,-0.33385 -16.03421,-9.20186 -15.82383,-19.86956 z m 0,0"
       fill="#acebe2"
       data-original="#ffffff"
       class=""
       id="path6"
       style="stroke-width:1.22413" /><path
       d="m 329.35335,79.37415 c 0,-38.24199 -29.98372,-69.243515 -66.96933,-69.243515 -36.99065,0 -66.97434,31.001525 -66.97434,69.243515 0,38.24199 29.98369,69.24351 66.97434,69.24351 36.98561,0 66.96933,-31.00152 66.96933,-69.24351 z m 0,0"
       fill="#acebe2"
       data-original="#ffffff"
       class=""
       id="path8"
       style="stroke-width:1.31277" /><path
       d="m 332.67015,441.76278 -17.41496,-1.13197 1.63936,-235.39873 c 0.0831,-11.60666 -8.35464,-20.7042 -18.0637,-19.47832 l -31.80546,4.01147 c 3.84418,3.57328 6.34268,9.13926 6.29885,15.46685 l -1.63936,235.39873 17.41497,1.13197 c 8.66584,0.55816 15.44685,9.07667 15.44685,19.39486 v 20.50597 c 0,10.69899 -7.27632,19.38443 -16.27531,19.42616 l -89.4287,0.38602 c 0.70572,0.10954 1.42458,0.18779 2.16097,0.18257 l 130.83366,-0.56859 c 9.00338,-0.0365 16.27971,-8.72717 16.27971,-19.42616 v -20.50597 c 0,-10.31819 -6.78101,-18.8367 -15.44688,-19.39486 z m 0,0"
       fill="#98d7ce"
       data-original="#e6e6e6"
       class=""
       id="path10"
       style="stroke-width:1.22413" /><path
       d="m 262.38402,10.130635 c -8.86203,0 -17.31573,1.794468 -25.05363,5.028684 24.56969,10.26081 41.91567,35.132971 41.91567,64.214831 0,29.07664 -17.34597,53.95401 -41.91567,64.20961 7.7379,3.23421 16.1916,5.02868 25.05364,5.02868 36.9856,0 66.96932,-30.9963 66.96932,-69.23829 0,-38.24199 -29.98372,-69.243515 -66.96933,-69.243515 z m 0,0"
       fill="#98d7ce"
       data-original="#e6e6e6"
       class=""
       id="path12"
       style="stroke-width:1.31277" /><path
       d="m 331.80664,491.07413 -47.54599,0.20345 c -4.64634,0.0261 -8.40282,4.52268 -8.3853,10.05215 0.0175,5.51903 3.78279,9.97912 8.416,9.97912 h 0.0305 l 47.54602,-0.20345 c 13.60147,-0.0574 24.665,-13.26549 24.665,-29.44179 v -20.50597 c 0,-15.63378 -10.27891,-28.54456 -23.407,-29.40006 l -9.3891,-0.60511 1.57363,-225.83693 c 0.0569,-8.37766 -2.90177,-16.41625 -8.11795,-22.04483 -5.22054,-5.63901 -12.23825,-8.35679 -19.24719,-7.48043 l -102.54802,12.9473 c -12.32592,1.55973 -21.84214,13.85496 -22.13142,28.59672 l -0.48218,24.76262 c -0.3156,16.10326 10.43671,29.61394 23.97243,30.11472 l 13.87324,0.51643 -0.0525,47.54297 c -0.009,5.53468 3.75215,10.02085 8.40287,10.03128 h 0.0131 c 4.64197,0 8.40725,-4.47573 8.41599,-9.99998 l 0.0657,-57.26648 c 0.009,-5.41471 -3.6031,-9.85393 -8.15301,-10.02607 L 197.2821,252.1908 c -4.33076,-0.16171 -7.77166,-4.47574 -7.67086,-9.6244 l 0.48217,-24.76261 c 0.092,-4.7157 3.13845,-8.6437 7.08347,-9.14449 l 102.54803,-12.94729 c 2.27493,-0.28691 4.46662,0.56338 6.16294,2.39436 1.69197,1.82577 2.61248,4.32968 2.59493,7.04224 l -1.63936,235.39873 c -0.0394,5.35211 3.46723,9.79133 7.95574,10.08345 l 17.415,1.13198 c 4.19922,0.27125 7.4911,4.39749 7.4911,9.39487 v 20.50597 c -0.004,5.16953 -3.54611,9.38966 -7.89877,9.41052 z m 0,0"
       fill="#000000"
       data-original="#000000"
       class=""
       id="path16"
       style="stroke-width:1.22413" /><path
       d="m 200.73191,452.50872 18.55901,-1.16849 c 4.46223,-0.27647 7.96452,-4.66353 7.97328,-9.98434 l 0.0874,-74.31914 c 0.004,-5.52946 -3.7565,-10.02085 -8.40284,-10.02607 -0.004,0 -0.009,0 -0.0131,0 -4.64195,0 -8.41161,4.47052 -8.41599,9.99999 l -0.0787,64.83037 -10.5989,0.66771 c -12.98781,0.81899 -23.28424,13.57327 -23.44206,29.04013 l -0.21039,20.32339 c -0.0788,7.94991 2.46343,15.43555 7.17113,21.07978 4.68578,5.62858 10.92324,8.72195 17.57717,8.72195 h 0.0965 l 44.01301,-0.19301 c 4.6507,-0.0209 8.40284,-4.52268 8.38531,-10.05215 -0.0175,-5.51903 -3.77842,-9.97912 -8.41599,-9.97912 -0.009,0 -0.0219,0 -0.0305,0 l -44.01305,0.19301 c -0.0131,0 -0.0219,0 -0.0305,0 -2.13031,0 -4.12911,-0.99113 -5.6326,-2.79603 -1.50348,-1.79969 -2.31439,-4.19405 -2.28808,-6.73447 l 0.20601,-20.31818 c 0.0525,-4.94 3.34886,-9.01929 7.50425,-9.28533 z m 0,0"
       fill="#000000"
       data-original="#000000"
       class=""
       id="path18"
       style="stroke-width:1.22413" /><path
       d="m 262.38402,0.115 c -42.26855,0 -76.65301,35.555505 -76.65301,79.25915 0,43.70364 34.38446,79.25914 76.65301,79.25914 42.2635,0 76.648,-35.5555 76.648,-79.25914 0,-43.703645 -34.3845,-79.25915 -76.648,-79.25915 z m 0,138.48702 c -31.59177,0 -57.29569,-26.57273 -57.29569,-59.22787 0,-32.66036 25.70392,-59.22788 57.29569,-59.22788 31.58673,0 57.29066,26.56752 57.29066,59.22788 0,32.65514 -25.70393,59.22787 -57.29066,59.22787 z m 0,0"
       fill="#000000"
       data-original="#000000"
       class=""
       id="path20"
       style="stroke-width:1.31277" /></g></svg>
