<svg id="Capa_1" enable-background="new 0 0 512 512" height="512" viewBox="0 0 512 512" width="512" xmlns="http://www.w3.org/2000/svg"><g><circle cx="256" cy="256" fill="#fffbe4" r="248.5"/><circle cx="256" cy="256" fill="#ffe07d" r="217.8"/><path d="m332.771 52.116c60.735 38.649 101.029 106.561 101.029 183.884 0 120.288-97.512 217.8-217.8 217.8-27.022 0-52.895-4.921-76.771-13.916 33.748 21.475 73.807 33.916 116.771 33.916 120.288 0 217.8-97.512 217.8-217.8 0-93.266-58.622-172.839-141.029-203.884z" fill="#ffd064"/><path d="m263.644 93.417 28.674 88.25c3.295 10.14 12.744 17.005 23.405 17.005h92.792c7.786 0 11.023 9.963 4.724 14.539l-75.07 54.542c-8.625 6.267-12.235 17.375-8.94 27.515l28.674 88.25c2.406 7.405-6.069 13.562-12.368 8.986l-75.07-54.542c-8.625-6.267-20.305-6.267-28.931 0l-75.07 54.542c-6.299 4.576-14.774-1.581-12.368-8.986l28.674-88.25c3.295-10.14-.315-21.248-8.94-27.515l-75.07-54.542c-6.299-4.576-3.062-14.539 4.724-14.539h92.792c10.662 0 20.111-6.865 23.405-17.005l28.674-88.25c2.407-7.405 12.883-7.405 15.289 0z" fill="#fffbe4"/><path d="m256 0c-64.504 0-126.125 24.068-173.512 67.771-3.045 2.808-3.236 7.553-.429 10.598 2.809 3.046 7.553 3.237 10.599.429 44.608-41.141 102.617-63.798 163.342-63.798 132.888 0 241 108.112 241 241s-108.112 241-241 241-241-108.112-241-241c0-55.282 19.187-109.289 54.025-152.07 2.616-3.212 2.133-7.936-1.079-10.551-3.213-2.616-7.937-2.131-10.552 1.08-37.011 45.448-57.394 102.818-57.394 161.541 0 68.38 26.629 132.667 74.98 181.02 48.352 48.351 112.64 74.98 181.02 74.98s132.668-26.629 181.02-74.98c48.351-48.353 74.98-112.64 74.98-181.02s-26.629-132.667-74.98-181.02c-48.352-48.351-112.64-74.98-181.02-74.98z"/><path d="m460.638 331.119c3.939 1.291 8.174-.851 9.466-4.787 7.43-22.63 11.196-46.293 11.196-70.332 0-60.18-23.436-116.758-65.988-159.311-42.554-42.554-99.132-65.989-159.312-65.989s-116.758 23.435-159.312 65.989c-42.552 42.553-65.988 99.131-65.988 159.311s23.436 116.758 65.988 159.311c42.554 42.554 99.132 65.989 159.312 65.989 42.078 0 83.122-11.677 118.696-33.767 34.588-21.479 62.758-51.914 81.465-88.015 1.905-3.678.469-8.204-3.209-10.11-3.676-1.904-8.204-.469-10.109 3.208-36.336 70.123-107.931 113.684-186.843 113.684-115.96 0-210.3-94.34-210.3-210.3s94.34-210.3 210.3-210.3 210.3 94.34 210.3 210.3c0 22.447-3.516 44.536-10.448 65.653-1.292 3.936.851 8.174 4.786 9.466z"/><path d="m342.577 273.82 75.07-54.542c5.548-4.031 7.764-10.849 5.645-17.371s-7.919-10.736-14.776-10.736h-92.792c-7.436 0-13.976-4.751-16.272-11.823l-28.675-88.25c-2.119-6.521-7.919-10.735-14.776-10.735s-12.657 4.214-14.776 10.735l-28.675 88.251c-2.297 7.071-8.837 11.822-16.272 11.822h-18.829c-4.143 0-7.5 3.358-7.5 7.5s3.357 7.5 7.5 7.5h18.829c13.955 0 26.228-8.917 30.538-22.187l28.675-88.25c.07-.215.121-.371.511-.371s.44.156.511.371l28.675 88.25c4.311 13.271 16.583 22.188 30.538 22.188h92.792c.227 0 .39 0 .511.371.12.371-.012.467-.195.6l-75.07 54.542c-11.289 8.202-15.977 22.628-11.665 35.9l28.675 88.25c.07.215.12.371-.195.6-.316.232-.449.132-.632 0l-75.069-54.542c-11.289-8.201-26.459-8.203-37.748 0l-75.069 54.542c-.183.133-.314.232-.632 0-.315-.229-.266-.385-.195-.6l28.675-88.251c4.312-13.271-.376-27.698-11.665-35.899l-75.07-54.542c-.184-.133-.315-.229-.195-.6.121-.371.284-.371.511-.371h38.963c4.143 0 7.5-3.358 7.5-7.5s-3.357-7.5-7.5-7.5h-38.963c-6.857 0-12.657 4.214-14.776 10.736s.097 13.34 5.645 17.371l75.07 54.542c6.015 4.371 8.513 12.058 6.216 19.129l-28.675 88.25c-2.119 6.521.096 13.34 5.644 17.371 5.549 4.031 12.719 4.03 18.266 0l75.069-54.542c6.015-4.371 14.099-4.37 20.115 0l75.069 54.542c5.55 4.031 12.717 4.03 18.266 0 5.548-4.031 7.763-10.85 5.644-17.371l-28.675-88.25c-2.304-7.072.194-14.759 6.209-19.13z"/></g></svg>