<?xml version="1.0" encoding="UTF-8" standalone="no"?>
<svg
   xmlns:dc="http://purl.org/dc/elements/1.1/"
   xmlns:cc="http://creativecommons.org/ns#"
   xmlns:rdf="http://www.w3.org/1999/02/22-rdf-syntax-ns#"
   xmlns:svg="http://www.w3.org/2000/svg"
   xmlns="http://www.w3.org/2000/svg"
   xmlns:sodipodi="http://sodipodi.sourceforge.net/DTD/sodipodi-0.dtd"
   xmlns:inkscape="http://www.inkscape.org/namespaces/inkscape"
   version="1.1"
   id="Capa_1"
   x="0px"
   y="0px"
   viewBox="0 0 512.002 512.002"
   style="enable-background:new 0 0 512.002 512.002;"
   xml:space="preserve"
   sodipodi:docname="cancel-2.svg"
   inkscape:version="1.0.1 (3bc2e813f5, 2020-09-07)"><metadata
   id="metadata43"><rdf:RDF><cc:Work
       rdf:about=""><dc:format>image/svg+xml</dc:format><dc:type
         rdf:resource="http://purl.org/dc/dcmitype/StillImage" /></cc:Work></rdf:RDF></metadata><defs
   id="defs41" /><sodipodi:namedview
   pagecolor="#ffffff"
   bordercolor="#666666"
   borderopacity="1"
   objecttolerance="10"
   gridtolerance="10"
   guidetolerance="10"
   inkscape:pageopacity="0"
   inkscape:pageshadow="2"
   inkscape:window-width="1366"
   inkscape:window-height="705"
   id="namedview39"
   showgrid="false"
   inkscape:zoom="1.0507771"
   inkscape:cx="72.80326"
   inkscape:cy="256.00101"
   inkscape:window-x="-8"
   inkscape:window-y="32"
   inkscape:window-maximized="1"
   inkscape:current-layer="Capa_1" />
<polygon
   style="fill:#877f87;fill-opacity:0.55686277"
   points="504.5,95.181 343.68,256.001 504.5,416.821 483.29,438.041 211.25,256.001 483.29,73.971 "
   id="polygon2" />
<polygon
   style="fill:#dadada;fill-opacity:1"
   points="483.29,73.971 301.25,256.001 483.29,438.041 416.82,504.501 256,343.681 95.18,504.501   7.5,416.821 168.32,256.001 7.5,95.181 95.18,7.501 256,168.321 416.82,7.501 "
   id="polygon4" />
<path
   d="M354.288,256.001l155.516-155.515c2.929-2.93,2.929-7.678,0-10.607L422.123,2.198c-1.407-1.407-3.314-2.197-5.303-2.197  s-3.896,0.79-5.304,2.196L256,157.713L100.486,2.198c-2.93-2.928-7.678-2.928-10.607,0L2.197,89.879C0.79,91.286,0,93.194,0,95.183  s0.79,3.896,2.196,5.304l155.517,155.514L93.212,320.5c-2.929,2.93-2.929,7.678,0,10.607c2.929,2.927,7.677,2.929,10.607,0  l69.804-69.803c1.406-1.407,2.196-3.314,2.196-5.304s-0.79-3.896-2.196-5.304L18.107,95.183l77.075-77.075l155.515,155.516  c2.93,2.928,7.678,2.928,10.607,0L416.82,18.108l77.074,77.075L338.378,250.698c-2.929,2.93-2.929,7.678,0,10.607L493.894,416.82  l-77.074,77.075L261.304,338.379c-2.93-2.928-7.678-2.928-10.607,0L95.182,493.895L18.107,416.82l64.5-64.499  c2.929-2.93,2.929-7.678,0-10.607c-2.931-2.929-7.679-2.928-10.607,0L2.197,411.516c-2.929,2.93-2.929,7.678,0,10.607l87.682,87.682  c1.465,1.464,3.385,2.196,5.304,2.196s3.839-0.732,5.304-2.196L256,354.289l155.516,155.516c1.407,1.406,3.314,2.196,5.304,2.196  s3.896-0.79,5.304-2.196l87.681-87.682c2.929-2.93,2.929-7.678,0-10.607L354.288,256.001z"
   id="path6" />
<g
   id="g8">
</g>
<g
   id="g10">
</g>
<g
   id="g12">
</g>
<g
   id="g14">
</g>
<g
   id="g16">
</g>
<g
   id="g18">
</g>
<g
   id="g20">
</g>
<g
   id="g22">
</g>
<g
   id="g24">
</g>
<g
   id="g26">
</g>
<g
   id="g28">
</g>
<g
   id="g30">
</g>
<g
   id="g32">
</g>
<g
   id="g34">
</g>
<g
   id="g36">
</g>
</svg>
