<svg height="512" viewBox="0 0 512 512" width="512" xmlns="http://www.w3.org/2000/svg"><g id="Filled_outline" data-name="Filled outline"><rect fill="#85ccd5" height="200" rx="16" width="464" x="24" y="288"/><rect fill="#4db6e4" height="232" rx="24" width="352" x="80" y="24"/><path d="m80 184v48a24 24 0 0 0 24 24h304a24 24 0 0 0 24-24v-176z" fill="#4aafdb"/><path d="m408 256h-304a24 24 0 0 1 -24-24v-24h352v24a24 24 0 0 1 -24 24z" fill="#dfdfdd"/><path d="m304 328h-96l10.67-48 5.33-24h64l5.33 24z" fill="#d5d5d3"/><path d="m184 320h144v16h-144z" fill="#dfdfdd"/><path d="m293.33 280h-74.66l5.33-24h64z" fill="#c6c6c4"/><path d="m104 360h256v96h-256z" fill="#dfdfdd"/><rect fill="#dfdfdd" height="96" rx="32" width="64" x="392" y="360"/><path d="m112 400v48h240v-80h-240v16h-16v-24a8 8 0 0 1 8-8h256a8 8 0 0 1 8 8v96a8 8 0 0 1 -8 8h-256a8 8 0 0 1 -8-8v-56zm48 32h144v-16h-144zm-32 0h16v-16h-16zm192 0h16v-16h-16zm-176-48h-16v16h16zm16 0v16h16v-16zm32 0v16h16v-16zm32 0v16h16v-16zm32 0v16h16v-16zm48 0h-16v16h16zm32 0h-16v16h16zm88 80a40.045 40.045 0 0 1 -40-40v-32a40 40 0 0 1 80 0v32a40.045 40.045 0 0 1 -40 40zm0-16a24.027 24.027 0 0 0 24-24v-32a24 24 0 0 0 -48 0v32a24.027 24.027 0 0 0 24 24zm56 24a8.009 8.009 0 0 1 -8 8h-432a8.009 8.009 0 0 1 -8-8v-168a8.009 8.009 0 0 1 8-8h152v-16h-152a24.028 24.028 0 0 0 -24 24v168a24.028 24.028 0 0 0 24 24h432a24.028 24.028 0 0 0 24-24v-16h-16zm-8-192h-152v16h152a8.009 8.009 0 0 1 8 8v136h16v-136a24.028 24.028 0 0 0 -24-24zm-400-48v-144h16v112h336v-152a16.019 16.019 0 0 0 -16-16h-304a16.019 16.019 0 0 0 -16 16v24h-16v-24a32.036 32.036 0 0 1 32-32h304a32.036 32.036 0 0 1 32 32v184a32.036 32.036 0 0 1 -32 32h-110.027l12.444 56h17.583v16h-144v-16h17.583l12.444-56h-110.027a32.036 32.036 0 0 1 -32-32zm209.583 32h-51.166l-12.444 56h76.054zm-193.583-48v16a16.019 16.019 0 0 0 16 16h304a16.019 16.019 0 0 0 16-16v-16zm32-168h-16v16h16zm-16 112h16v-80h-16z"/></g></svg>