<?xml version="1.0" encoding="iso-8859-1"?>
<!-- Generator: Adobe Illustrator 19.0.0, SVG Export Plug-In . SVG Version: 6.00 Build 0)  -->
<svg version="1.1" id="Capa_1" xmlns="http://www.w3.org/2000/svg" xmlns:xlink="http://www.w3.org/1999/xlink" x="0px" y="0px"
	 viewBox="0 0 512 512" style="enable-background:new 0 0 512 512;" xml:space="preserve">
<path style="fill:#2FC8B4;" d="M472.412,116.965c-31.178-15.495-65.527-23.352-102.093-23.352c-49.956,0-92.435,14.814-114.3,24.181
	c-21.909-9.402-64.306-24.182-114.343-24.182c-36.575,0-70.932,7.861-102.116,23.365C19.784,126.81,7.5,146.618,7.5,168.673v199.203
	c0,31.827,25.858,57.722,57.642,57.722c6.691,0,13.302-1.167,19.65-3.465c17.637-6.389,36.778-9.628,56.891-9.628
	c53.36,0,96.899,22.684,98.655,23.612c9.667,5.388,21.425,5.431,31.131,0.112l0.253-0.139c0.431-0.236,44.55-23.586,98.599-23.586
	c20.111,0,39.251,3.238,56.889,9.627c6.346,2.299,12.956,3.465,19.648,3.466c0.002,0,0.001,0,0.003,0
	c15.098,0,29.401-5.843,40.271-16.449c11.201-10.93,17.369-25.587,17.369-41.273V168.674
	C504.499,146.614,492.204,126.801,472.412,116.965z"/>
<path style="fill:#00AE95;" d="M489.797,367.876V130.143c-4.805-5.341-10.661-9.837-17.385-13.179
	c-31.178-15.495-65.527-23.352-102.093-23.352c-49.956,0-92.435,14.814-114.3,24.182c-21.909-9.403-64.306-24.182-114.344-24.182
	c-36.575,0-70.932,7.861-102.116,23.365c-6.713,3.337-12.559,7.827-17.358,13.162v237.737c0,23.721,19.263,43.02,42.939,43.02
	c4.979,0,9.905-0.87,14.643-2.586c19.247-6.972,40.072-10.506,61.897-10.506c57.926,0,104.735,24.891,105.691,25.405l8.632,4.731
	l8.65-4.741c0.464-0.254,47.018-25.396,105.664-25.396c21.824,0,42.648,3.535,61.895,10.506c4.737,1.716,9.663,2.586,14.642,2.586
	c0.001,0,0.001,0,0.003,0c11.239,0,21.895-4.357,30.003-12.27C485.203,390.487,489.797,379.566,489.797,367.876z"/>
<path style="fill:#D4D2D3;" d="M457.858,91.746c-98.516-48.962-201.854,7.676-201.854,7.676l-62.225,128.114l62.225,179.877
	c0,0,90.163-49.417,182.34-16.028c16.273,5.894,33.452-6.202,33.452-23.509V114.17C471.797,104.654,466.38,95.981,457.858,91.746z"
	/>
<path style="fill:#EFEDEE;" d="M255.972,99.4c-2.226-1.196-104.405-56.093-201.852-7.644c-8.514,4.233-13.918,12.906-13.918,22.414
	v253.706c0,17.307,17.18,29.404,33.452,23.509c92.179-33.389,182.351,16.028,182.351,16.028V99.422L255.972,99.4z"/>
<path d="M446.86,433.13c35.547,0.005,65.14-29.749,65.14-65.222V168.706c0-23.605-12.462-44.927-32.774-56.56
	c-0.719-11.591-7.484-21.844-18.029-27.085c-13.572-6.745-28.01-11.915-42.914-15.365c-4.034-0.935-8.064,1.58-8.998,5.615
	s1.58,8.064,5.615,8.998c13.765,3.187,27.095,7.959,39.621,14.184c6.031,2.997,9.777,9.016,9.777,15.708v253.706
	c0,11.759-12.308,20.475-23.398,16.457c-49.365-17.881-97.965-12.452-130.042-4.748c-13.247,3.182-26.267,7.3-38.919,12.354
	c-0.726,0.291-8.368,3.517-8.433,3.546V104.074c14.122-6.796,64.768-28.668,123.088-24.088c4.13,0.326,7.74-2.76,8.064-6.89
	c0.324-4.129-2.76-7.74-6.89-8.064c-63.897-5.02-117.598,18.96-131.782,25.995c-19.59-9.594-114.375-51.114-205.204-5.956
	c-10.532,5.236-17.289,15.485-18.008,27.073C12.463,123.77,0,145.095,0,168.706c0,0,0,198.995,0,199.202
	c0,44.218,45.826,76.345,87.345,61.309c16.813-6.09,35.095-9.179,54.337-9.179c51.011,0,92.54,21.372,95.084,22.708
	c12.086,6.345,26.238,6.707,38.313,0.09l0.197-0.109c0.425-0.227,43.124-22.689,95.043-22.689c19.239,0,37.52,3.088,54.334,9.178
	C431.818,431.812,439.288,433.129,446.86,433.13z M268.11,429.549l-0.246,0.135c-7.49,4.104-16.415,4.072-23.876-0.086
	c-0.048-0.027-0.097-0.053-0.146-0.079c-1.891-1-46.946-24.482-102.16-24.482c-20.989,0-40.99,3.39-59.445,10.076
	C50.005,426.79,15,402.116,15,367.908V168.706c0-15.044,6.569-28.886,17.702-38.289v237.491c0,8.474,3.4,16.764,9.346,22.806
	c8.744,8.886,22.444,11.998,34.16,7.754c11.341-4.107,23.317-7.119,35.596-8.949c3.841-0.573,6.565-3.962,6.387-7.76
	c-0.205-4.38-4.26-7.724-8.599-7.077c-13.267,1.979-26.218,5.236-38.492,9.682c-10.995,3.982-23.398-4.796-23.398-16.457V114.202
	c0-6.691,3.738-12.706,9.757-15.698c83.666-41.597,171.405-3.962,191.046,5.556V395.5c-5.23-2.329-10.549-4.455-15.923-6.429
	c-26.045-9.564-53.667-15.477-81.419-16.559c-3.661-0.143-7.323-0.191-10.987-0.165c-4.082,0.028-7.476,3.471-7.45,7.549
	c0.028,4.314,3.865,7.464,7.993,7.451c60.631-0.248,109.636,25.581,111.624,26.646c0.032,0.017,0.051,0.027,0.059,0.032
	c2.415,1.358,5.163,1.077,7.541-0.178c5.418-2.852,74.982-38.281,151.193-22.364c8.363,1.747,16.622,4.078,24.655,6.988
	c20.801,7.535,43.507-8.499,43.507-30.561V130.42C490.429,139.826,497,153.666,497,168.706v199.202
	c0,13.648-5.365,26.4-15.107,35.905c-13.664,13.333-34.185,17.802-52.131,11.3c-18.457-6.685-38.457-10.075-59.443-10.075
	C314.344,405.038,268.56,429.303,268.11,429.549z"/>
<path d="M82.672,164.579c53.576-17.135,105.774-6.58,140.128,5.292c3.865,1.335,8.201-0.771,9.538-4.639
	c1.353-3.915-0.724-8.186-4.639-9.538c-36.505-12.616-92.093-23.793-149.597-5.402c-3.945,1.262-6.121,5.483-4.859,9.429
	C74.505,163.665,78.726,165.841,82.672,164.579z"/>
<path d="M82.672,213.005c53.576-17.135,105.774-6.581,140.128,5.292c3.863,1.334,8.201-0.771,9.538-4.639
	c1.353-3.915-0.724-8.185-4.639-9.538c-36.505-12.615-92.093-23.793-149.597-5.401c-3.945,1.262-6.121,5.483-4.859,9.428
	S78.726,214.267,82.672,213.005z"/>
<path d="M82.672,261.431c53.576-17.135,105.774-6.58,140.128,5.292c3.864,1.334,8.2-0.769,9.538-4.639
	c1.353-3.915-0.724-8.186-4.639-9.539c-36.506-12.616-92.093-23.793-149.597-5.401c-3.945,1.262-6.121,5.483-4.859,9.428
	S78.726,262.692,82.672,261.431z"/>
<path d="M222.8,315.148c3.859,1.335,8.202-0.773,9.538-4.639c1.353-3.915-0.724-8.186-4.639-9.538
	c-36.506-12.616-92.093-23.793-149.597-5.402c-3.945,1.262-6.121,5.483-4.859,9.428s5.482,6.12,9.428,4.859
	C136.248,292.721,188.446,303.276,222.8,315.148z"/>
<path d="M433.937,150.292c-57.504-18.391-113.091-7.214-149.597,5.402c-3.914,1.353-5.991,5.623-4.639,9.537
	c1.334,3.861,5.688,5.971,9.538,4.64c34.354-11.872,86.553-22.427,140.128-5.292c3.946,1.262,8.167-0.913,9.428-4.858
	S437.882,151.554,433.937,150.292z"/>
<path d="M433.937,198.718c-57.504-18.392-113.091-7.214-149.597,5.401c-3.914,1.353-5.992,5.623-4.639,9.538
	c1.327,3.84,5.704,5.965,9.538,4.639c34.354-11.872,86.553-22.427,140.128-5.292c3.946,1.262,8.167-0.914,9.428-4.859
	S437.882,199.98,433.937,198.718z"/>
<path d="M433.937,247.144c-57.504-18.392-113.091-7.214-149.597,5.401c-3.915,1.353-5.992,5.623-4.639,9.538
	c1.332,3.854,5.694,5.968,9.538,4.639c34.354-11.872,86.553-22.427,140.128-5.292c3.946,1.261,8.167-0.914,9.428-4.859
	S437.882,248.405,433.937,247.144z"/>
<path d="M433.937,295.569c-57.504-18.392-113.091-7.214-149.597,5.402c-3.915,1.353-5.992,5.623-4.639,9.538
	c1.325,3.834,5.714,5.961,9.538,4.639c34.354-11.872,86.553-22.427,140.128-5.292c3.946,1.261,8.167-0.914,9.428-4.859
	S437.882,296.831,433.937,295.569z"/>
<g>
</g>
<g>
</g>
<g>
</g>
<g>
</g>
<g>
</g>
<g>
</g>
<g>
</g>
<g>
</g>
<g>
</g>
<g>
</g>
<g>
</g>
<g>
</g>
<g>
</g>
<g>
</g>
<g>
</g>
</svg>
