<?xml version="1.0" encoding="UTF-8" standalone="no"?>
<svg
   xmlns:dc="http://purl.org/dc/elements/1.1/"
   xmlns:cc="http://creativecommons.org/ns#"
   xmlns:rdf="http://www.w3.org/1999/02/22-rdf-syntax-ns#"
   xmlns:svg="http://www.w3.org/2000/svg"
   xmlns="http://www.w3.org/2000/svg"
   xmlns:sodipodi="http://sodipodi.sourceforge.net/DTD/sodipodi-0.dtd"
   xmlns:inkscape="http://www.inkscape.org/namespaces/inkscape"
   version="1.1"
   id="Capa_1"
   x="0px"
   y="0px"
   viewBox="0 0 191.147 191.147"
   style="enable-background:new 0 0 191.147 191.147;"
   xml:space="preserve"
   sodipodi:docname="menu-2.svg"
   inkscape:version="1.0.1 (3bc2e813f5, 2020-09-07)"><metadata
   id="metadata53"><rdf:RDF><cc:Work
       rdf:about=""><dc:format>image/svg+xml</dc:format><dc:type
         rdf:resource="http://purl.org/dc/dcmitype/StillImage" /></cc:Work></rdf:RDF></metadata><defs
   id="defs51" /><sodipodi:namedview
   pagecolor="#ffffff"
   bordercolor="#666666"
   borderopacity="1"
   objecttolerance="10"
   gridtolerance="10"
   guidetolerance="10"
   inkscape:pageopacity="0"
   inkscape:pageshadow="2"
   inkscape:window-width="1366"
   inkscape:window-height="705"
   id="namedview49"
   showgrid="false"
   inkscape:zoom="2.8145877"
   inkscape:cx="95.573502"
   inkscape:cy="95.573502"
   inkscape:window-x="-8"
   inkscape:window-y="32"
   inkscape:window-maximized="1"
   inkscape:current-layer="Capa_1" />
<path
   style="fill:#83D816;"
   d="M68.008,78.507H13.91c-5.798,0-10.498-4.7-10.498-10.498V13.911c0-5.798,4.7-10.498,10.498-10.498  h54.098c5.798,0,10.498,4.7,10.498,10.498v54.098C78.506,73.807,73.806,78.507,68.008,78.507z"
   id="path2" />
<path
   d="M68.008,81.92H13.912c-7.671,0-13.911-6.24-13.911-13.909V13.909C0.001,6.24,6.24,0,13.912,0h54.096  c7.671,0,13.911,6.24,13.911,13.909v54.1C81.919,75.68,75.68,81.92,68.008,81.92z M13.91,6.827c-3.907,0-7.084,3.176-7.084,7.083  v54.1c0,3.907,3.178,7.083,7.084,7.083h54.096c3.907,0,7.084-3.176,7.084-7.083v-54.1c0-3.907-3.178-7.083-7.084-7.083H13.91z"
   id="path4" />
<path
   style="fill:#A0F954;"
   d="M177.235,78.507h-54.098c-5.798,0-10.498-4.7-10.498-10.498V13.911c0-5.798,4.7-10.498,10.498-10.498  h54.098c5.798,0,10.498,4.7,10.498,10.498v54.098C187.732,73.807,183.032,78.507,177.235,78.507z"
   id="path6" />
<path
   d="M177.235,81.92h-54.096c-7.671,0-13.911-6.24-13.911-13.909V13.909c0-7.67,6.24-13.909,13.911-13.909h54.096  c7.671,0,13.911,6.24,13.911,13.909v54.1C191.146,75.68,184.906,81.92,177.235,81.92z M123.137,6.827  c-3.907,0-7.084,3.176-7.084,7.083v54.1c0,3.907,3.178,7.083,7.084,7.083h54.096c3.907,0,7.084-3.176,7.084-7.083v-54.1  c0-3.907-3.178-7.083-7.084-7.083H123.137z"
   id="path8" />
<path
   style="fill:#A0F954;"
   d="M68.008,187.733H13.91c-5.798,0-10.498-4.7-10.498-10.498v-54.098c0-5.798,4.7-10.498,10.498-10.498  h54.098c5.798,0,10.498,4.7,10.498,10.498v54.098C78.506,183.033,73.806,187.733,68.008,187.733z"
   id="path10" />
<path
   d="M68.008,191.147H13.912c-7.671,0-13.911-6.24-13.911-13.909v-54.101c0-7.67,6.24-13.909,13.911-13.909h54.096  c7.671,0,13.911,6.24,13.911,13.909v54.1C81.919,184.907,75.68,191.147,68.008,191.147z M13.91,116.053  c-3.907,0-7.084,3.176-7.084,7.083v54.1c0,3.907,3.178,7.083,7.084,7.083h54.096c3.907,0,7.084-3.176,7.084-7.083v-54.1  c0-3.907-3.178-7.083-7.084-7.083H13.91z"
   id="path12" />
<path
   style="fill:#83D816;"
   d="M177.235,187.733h-54.098c-5.798,0-10.498-4.7-10.498-10.498v-54.098  c0-5.798,4.7-10.498,10.498-10.498h54.098c5.798,0,10.498,4.7,10.498,10.498v54.098  C187.732,183.033,183.032,187.733,177.235,187.733z"
   id="path14" />
<path
   d="M177.235,191.147h-54.096c-7.671,0-13.911-6.24-13.911-13.909v-54.101c0-7.67,6.24-13.909,13.911-13.909h54.096  c7.671,0,13.911,6.24,13.911,13.909v54.1C191.146,184.907,184.906,191.147,177.235,191.147z M123.137,116.053  c-3.907,0-7.084,3.176-7.084,7.083v54.1c0,3.907,3.178,7.083,7.084,7.083h54.096c3.907,0,7.084-3.176,7.084-7.083v-54.1  c0-3.907-3.178-7.083-7.084-7.083H123.137z"
   id="path16" />
<g
   id="g18">
</g>
<g
   id="g20">
</g>
<g
   id="g22">
</g>
<g
   id="g24">
</g>
<g
   id="g26">
</g>
<g
   id="g28">
</g>
<g
   id="g30">
</g>
<g
   id="g32">
</g>
<g
   id="g34">
</g>
<g
   id="g36">
</g>
<g
   id="g38">
</g>
<g
   id="g40">
</g>
<g
   id="g42">
</g>
<g
   id="g44">
</g>
<g
   id="g46">
</g>
</svg>
