<?xml version="1.0" encoding="iso-8859-1"?>
<!-- Generator: Adobe Illustrator 19.0.0, SVG Export Plug-In . SVG Version: 6.00 Build 0)  -->
<svg version="1.1" id="Capa_1" xmlns="http://www.w3.org/2000/svg" xmlns:xlink="http://www.w3.org/1999/xlink" x="0px" y="0px"
	 viewBox="0 0 511.999 511.999" style="enable-background:new 0 0 511.999 511.999;" xml:space="preserve">
<path style="fill:#FAEFCA;" d="M51.269,472.196h409.463c24.036,0,43.269-19.932,43.269-43.968V153.832
	c0-24.036-19.232-43.636-43.269-43.636H329.098l-67.255-67.198c-3.227-3.227-8.458-3.255-11.685-0.029l-67.255,67.227H51.269
	C27.232,110.196,8,129.796,8,153.832v274.396C8,452.264,27.232,472.196,51.269,472.196z"/>
<g>
	<path style="fill:#F6D36C;" d="M505,456.196c0-8.837-7.163-16-16-16H24c-8.837,0-16,7.163-16,16l0,0c0,8.837,7.163,16,16,16h465
		C497.837,472.196,505,465.033,505,456.196L505,456.196z"/>
	<circle style="fill:#F6D36C;" cx="258.63" cy="215.58" r="58.33"/>
</g>
<path style="fill:#EDA500;" d="M258.634,157.247c-6.297,0-12.354,1.01-18.035,2.856c23.386,7.598,40.297,29.557,40.297,55.477
	s-16.911,47.879-40.297,55.477c5.681,1.846,11.739,2.856,18.035,2.856c32.216,0,58.333-26.116,58.333-58.333
	C316.967,183.364,290.851,157.247,258.634,157.247z"/>
<path style="fill:#6CC9F1;" d="M376.894,419.196H135.106c-4.316,0-8.106-3.515-8.106-7.831v-37.617
	c0-38.482,31.488-69.553,69.97-69.553h118.06c38.482,0,69.97,31.071,69.97,69.553v37.617
	C385,415.681,381.21,419.196,376.894,419.196z"/>
<path style="fill:#67BAE8;" d="M315.03,304.196h-36.071c38.482,0,70.041,31.071,70.041,69.553v37.617
	c0,4.316-3.861,7.831-8.177,7.831h36.071c4.316,0,8.106-3.515,8.106-7.831v-37.617C385,335.267,353.512,304.196,315.03,304.196z"/>
<path d="M460.732,102.196h-81.337c-4.279,0-7.747,3.721-7.747,8s3.468,8,7.747,8h81.337c19.726,0,36.268,15.91,36.268,35.636
	v274.395c0,19.726-16.542,35.968-36.268,35.968H51.268C31.542,464.196,15,447.954,15,428.228V153.832
	c0-19.726,16.542-35.636,36.268-35.636h131.634c2.055,0,4.025-0.885,5.478-2.338l67.254-67.29c0.202-0.202,0.53-0.219,0.729-0.018
	l67.255,67.247c3.025,3.025,7.93,3.022,10.957-0.004c3.025-3.025,3.025-7.933,0-10.958L267.32,37.578
	c-6.242-6.241-16.397-6.426-22.641-0.184l-64.985,64.802H51.268C22.999,102.196,0,125.563,0,153.832v274.395
	c0,28.27,22.999,50.968,51.268,50.968h409.463c28.269,0,51.268-22.699,51.268-50.968V153.832
	C512,125.563,489.001,102.196,460.732,102.196z"/>
<path d="M258.635,281.66c36.437,0,66.08-29.643,66.08-66.08s-29.643-66.08-66.08-66.08s-66.08,29.643-66.08,66.08
	S222.198,281.66,258.635,281.66z M258.635,164.995c27.893,0,50.585,22.693,50.585,50.585s-22.693,50.585-50.585,50.585
	c-27.893,0-50.585-22.693-50.585-50.585S230.742,164.995,258.635,164.995z"/>
<path d="M141.693,345.751c1.938-3.815,0.426-8.478-3.389-10.416c-3.816-1.937-8.246-0.416-10.183,3.399
	c-5.544,10.915-8.122,22.695-8.122,35.015v37.617c0,8.58,6.526,15.831,15.106,15.831h241.788c8.58,0,15.106-7.25,15.106-15.831
	v-37.617c0-42.693-34.277-77.553-76.97-77.553H196.97c-15.515,0-30.486,4.638-43.294,13.291c-3.546,2.396-4.478,7.243-2.083,10.789
	s7.212,4.682,10.756,2.287c10.238-6.916,22.208-10.367,34.621-10.367h118.06c34.149,0,61.932,27.593,61.932,61.742l-0.207,37.589
	L337,411.422v-36.27c0-4.279-3.221-7.747-7.5-7.747s-7.5,3.469-7.5,7.747v36.266l-132-0.037v-36.229c0-4.279-3.721-7.747-8-7.747
	s-8,3.469-8,7.747v36.225l-39-0.011v-37.617C135,363.891,137.265,354.471,141.693,345.751z"/>
<g>
</g>
<g>
</g>
<g>
</g>
<g>
</g>
<g>
</g>
<g>
</g>
<g>
</g>
<g>
</g>
<g>
</g>
<g>
</g>
<g>
</g>
<g>
</g>
<g>
</g>
<g>
</g>
<g>
</g>
</svg>
