<svg id="Capa_1" enable-background="new 0 0 512 512" height="512" viewBox="0 0 512 512" width="512" xmlns="http://www.w3.org/2000/svg"><g><g><g><path d="m504.408 198.27v266.35c0 22.03-17.85 39.88-39.87 39.88h-327.6c-18.82 0-34.59-13.04-38.78-30.58l-.16-22.8-.93-135.78v-267.96c0-22.03 17.85-39.88 39.87-39.88h176.7c15.88 0 67.31 43.85 112.77 90.03 41.48 42.15 78 86.24 78 100.74z" fill="#ddeafb"/><path d="m504.408 198.27v97.57c0-.11-.01-.22-.01-.34-3-119.72-100.52-125.26-132.41-157.15l54.42-40.82c41.48 42.15 78 86.24 78 100.74z" fill="#cbe2ff"/><path d="m313.633 7.5h-97.57c.11 0 .22.01.34.01 119.72 3 125.26 100.52 157.15 132.41l40.82-54.42c-42.15-41.48-86.24-78-100.74-78z" fill="#cbe2ff"/><path d="m504.407 198.276v16.868c0-35.514-28.798-64.312-64.312-64.312h-39.143c-22.019 0-39.877-17.858-39.877-39.877v-39.143c0-35.514-28.798-64.312-64.312-64.312h16.868c30.373 0 59.512 12.068 80.989 33.545l76.242 76.242c21.477 21.476 33.545 50.615 33.545 80.989z" fill="#bed8fb"/></g><path d="m323.447 379.838c-27.681 59.501-87.981 100.756-157.921 100.756-69.955 0-130.256-41.255-157.937-100.756 15.533-33.387 41.334-61.021 73.341-78.859 25.032-13.95 53.873-21.897 84.596-21.897 29.531 0 57.322 7.351 81.68 20.314v.016c33.355 17.759 60.253 46.036 76.241 80.426z" fill="#ddeafb"/><path d="m258.303 343.724c0 51.804-42.008 93.812-93.828 93.812s-93.828-42.008-93.828-93.812c0-15.392 3.715-29.923 10.283-42.745 25.032-13.95 53.873-21.897 84.596-21.897 29.531 0 57.322 7.351 81.68 20.314v.016c7.085 13.198 11.097 28.277 11.097 44.312z" fill="#80b4fb"/><circle cx="164.476" cy="343.718" fill="#475959" r="46.22"/></g><g><path d="m511.907 198.276c0-32.599-12.693-63.244-35.742-86.292l-76.242-76.242c-23.047-23.049-53.693-35.742-86.291-35.742h-.004-176.7c-26.12 0-47.37 21.254-47.37 47.38v240.839c-4.165 1.917-8.266 3.975-12.277 6.21-33.283 18.549-60.448 47.759-76.489 82.248-.933 2.005-.933 4.319-.001 6.324 6.825 14.685 15.623 28.428 26.15 40.848 2.678 3.16 7.412 3.551 10.57.872 3.16-2.678 3.55-7.411.872-10.57-8.899-10.5-16.45-22.027-22.479-34.309 11.635-23.665 29.029-44.445 50.167-60.26-1.928 7.883-2.924 16.005-2.924 24.142 0 55.864 45.456 101.313 101.328 101.313s101.328-45.449 101.328-101.313c0-8.815-1.167-17.586-3.412-26.056 22.33 16.026 40.62 37.493 52.739 62.171-13.263 27.014-33.565 49.922-58.891 66.402-26.993 17.564-58.362 26.849-90.717 26.849-38.312 0-74.329-12.646-104.158-36.57-3.231-2.592-7.951-2.074-10.543 1.158-2.592 3.231-2.073 7.951 1.158 10.543 11.953 9.587 25.058 17.566 38.926 23.806.972 8.499 4.275 16.468 9.549 22.827 9.037 10.896 22.331 17.146 36.474 17.146h327.6c26.12 0 47.37-21.254 47.37-47.38zm-122.59-151.928 76.242 76.242c12.184 12.184 21.068 26.788 26.205 42.729-13.07-13.549-31.401-21.987-51.669-21.987h-39.143c-17.853 0-32.377-14.524-32.377-32.377v-39.143c0-20.268-8.438-38.599-21.987-51.669 15.942 5.137 30.545 14.021 42.729 26.205zm-224.841 383.688c-47.602 0-86.328-38.72-86.328-86.313 0-13.071 2.841-25.596 8.441-37.267 24.106-12.998 51.34-19.876 78.934-19.876 26.474 0 52.734 6.365 76.116 18.394 5.999 11.935 9.164 25.281 9.164 38.75 0 47.592-38.726 86.312-86.327 86.312zm300.052 66.964h-327.6c-9.664 0-18.75-4.272-24.928-11.722-1.628-1.963-2.954-4.185-3.98-6.57 18.44 6.155 37.874 9.382 57.502 9.382 35.267 0 69.465-10.124 98.898-29.276 28.667-18.654 51.428-44.869 65.822-75.81.933-2.005.933-4.319.001-6.324-16.493-35.494-44.609-65.211-79.189-83.714-.107-.064-.217-.126-.328-.185-26.049-13.869-55.512-21.2-85.205-21.2-20.84 0-41.495 3.606-60.964 10.528v-234.729c0-17.854 14.521-32.38 32.37-32.38h159.835c31.326 0 56.812 25.486 56.812 56.812v39.143c0 26.124 21.253 47.377 47.377 47.377h39.143c31.203 0 56.604 25.289 56.803 56.446v249.842c.001 17.855-14.52 32.38-32.369 32.38z"/><path d="m437.083 225.5h-46.04c-4.142 0-7.5 3.358-7.5 7.5s3.358 7.5 7.5 7.5h46.04c4.142 0 7.5-3.358 7.5-7.5s-3.358-7.5-7.5-7.5z"/><path d="m365.073 233c0-4.142-3.358-7.5-7.5-7.5h-193.18c-4.142 0-7.5 3.358-7.5 7.5s3.358 7.5 7.5 7.5h193.18c4.142 0 7.5-3.358 7.5-7.5z"/><path d="m437.079 265.395h-181.157c-4.142 0-7.5 3.358-7.5 7.5s3.358 7.5 7.5 7.5h181.157c4.142 0 7.5-3.358 7.5-7.5s-3.358-7.5-7.5-7.5z"/><path d="m437.079 305.29h-127.951c-4.142 0-7.5 3.358-7.5 7.5s3.358 7.5 7.5 7.5h127.951c4.142 0 7.5-3.358 7.5-7.5s-3.358-7.5-7.5-7.5z"/><path d="m374.307 345.185h-33.457c-4.142 0-7.5 3.358-7.5 7.5s3.358 7.5 7.5 7.5h33.457c4.142 0 7.5-3.358 7.5-7.5s-3.358-7.5-7.5-7.5z"/><path d="m164.391 129.846h100.171c4.142 0 7.5-3.358 7.5-7.5s-3.358-7.5-7.5-7.5h-100.171c-4.142 0-7.5 3.358-7.5 7.5s3.358 7.5 7.5 7.5z"/><path d="m164.476 289.999c-29.621 0-53.72 24.098-53.72 53.719s24.099 53.72 53.72 53.72 53.72-24.099 53.72-53.72-24.099-53.719-53.72-53.719zm0 92.439c-21.35 0-38.72-17.37-38.72-38.72s17.37-38.719 38.72-38.719 38.72 17.37 38.72 38.719c0 21.35-17.37 38.72-38.72 38.72z"/></g></g></svg>