<?xml version="1.0"?>
<svg xmlns="http://www.w3.org/2000/svg" xmlns:xlink="http://www.w3.org/1999/xlink" xmlns:svgjs="http://svgjs.com/svgjs" version="1.1" width="512" height="512" x="0" y="0" viewBox="0 0 64 64" style="enable-background:new 0 0 512 512" xml:space="preserve" class=""><g><path xmlns="http://www.w3.org/2000/svg" d="m55 63h-46v-62h36l10 10z" fill="#faf7f5" data-original="#23a8cc" style="" class=""/><g xmlns="http://www.w3.org/2000/svg" opacity=".2"><path d="m43 1v12h12v-2l-10-10z" fill="#000000" data-original="#231f20" style="" class=""/></g><path xmlns="http://www.w3.org/2000/svg" d="m45 1v10h10z" fill="#ff7956" data-original="#6a951f" style="" class=""/><path xmlns="http://www.w3.org/2000/svg" d="m34 19.124a16.007 16.007 0 1 1 -18 15.876h18z" fill="#ff7956" data-original="#6a951f" style="" class=""/><path xmlns="http://www.w3.org/2000/svg" d="m16 31h14v-12a14.169 14.169 0 0 0 -14 12z" fill="#ffc850" data-original="#fcc325" style="" class=""/><g xmlns="http://www.w3.org/2000/svg" fill="#043c49"><path d="m20 10a1 1 0 0 0 0 2h1a1 1 0 0 0 0-2z" fill="#000000" data-original="#043c49" style="" class=""/><path d="m24 10a1 1 0 0 0 0 2h1a1 1 0 0 0 0-2z" fill="#000000" data-original="#043c49" style="" class=""/><path d="m16 12h1a1 1 0 0 0 0-2h-1a1 1 0 0 0 0 2z" fill="#000000" data-original="#043c49" style="" class=""/><path d="m39 56a1 1 0 0 0 0 2h1a1 1 0 0 0 0-2z" fill="#000000" data-original="#043c49" style="" class=""/><path d="m43 56a1 1 0 0 0 0 2h1a1 1 0 0 0 0-2z" fill="#000000" data-original="#043c49" style="" class=""/><path d="m56.032 11a1.033 1.033 0 0 0 -.3-.73l-10-10a1.033 1.033 0 0 0 -.73-.3h-36.002a1.032 1.032 0 0 0 -1.032 1.03v62a1.032 1.032 0 0 0 1.032 1.032h46a1.032 1.032 0 0 0 1.032-1.032v-12a1.032 1.032 0 0 0 -2.064 0v10.968h-43.936v-59.936h33.968v8.968a1 1 0 0 0 1 1h8.968v32a1.032 1.032 0 0 0 2.064 0zm-10.032-7.54 6.54 6.54h-6.54z" fill="#000000" data-original="#043c49" style="" class=""/><path d="m55 46a1 1 0 0 0 -1 1v1a1 1 0 0 0 2 0v-1a1 1 0 0 0 -1-1z" fill="#000000" data-original="#043c49" style="" class=""/><path d="m16 56a1 1 0 0 0 0 2h19a1 1 0 0 0 0-2z" fill="#000000" data-original="#043c49" style="" class=""/><path d="m30 7a1 1 0 0 0 -1-1h-13a1 1 0 0 0 0 2h13a1 1 0 0 0 1-1z" fill="#000000" data-original="#043c49" style="" class=""/><path d="m16 16h13a1 1 0 0 0 0-2h-13a1 1 0 0 0 0 2z" fill="#000000" data-original="#043c49" style="" class=""/><path d="m34.124 18.132a1 1 0 0 0 -1.124.992v14.876h-17a1 1 0 0 0 -1 1 16.989 16.989 0 0 0 17 17 17 17 0 0 0 2.124-33.868zm-2.124 31.868a14.99 14.99 0 0 1 -14.968-14h16.968a1 1 0 0 0 1-1v-14.7a15 15 0 0 1 -3 29.7z" fill="#000000" data-original="#043c49" style="" class=""/><path d="m30 18a15.169 15.169 0 0 0 -14.988 12.847 1 1 0 0 0 .988 1.153h14a1 1 0 0 0 1-1v-12a1 1 0 0 0 -1-1zm-1 12h-11.773a13.136 13.136 0 0 1 11.773-9.957z" fill="#000000" data-original="#043c49" style="" class=""/></g></g></svg>
