<svg id="Capa_1" enable-background="new 0 0 511.992 511.992" height="512" viewBox="0 0 511.992 511.992" width="512" xmlns="http://www.w3.org/2000/svg"><g><g><path d="m493.081 80.704-412.377 412.377c-3.906 3.906-10.239 3.906-14.145 0l-56.134-56.134c-3.906-3.906-3.906-10.239 0-14.145l27.916-27.916 6.01-4.596 4.596-6.01 47.05-47.05 6.01-4.596 4.596-6.01 47.05-47.05 6.01-4.596 4.596-6.01 47.05-47.05 6.01-4.596 4.596-6.01 47.05-47.05 6.01-4.596 4.596-6.01 47.05-47.05 6.01-4.596 4.596-6.01 47.05-47.05 6.01-4.596 4.596-6.01 27.916-27.916c3.906-3.906 10.239-3.906 14.145 0l56.135 56.135c3.908 3.903 3.908 10.235.002 14.141z" fill="#f9d065"/><path d="m501.567 75.045-17.944-17.944c3.906 3.906 3.906 10.239 0 14.145l-412.377 412.377c-3.906 3.906-10.239 3.906-14.145 0l17.944 17.944c3.906 3.906 10.239 3.906 14.145 0l412.377-412.377c3.906-3.906 3.906-10.239 0-14.145z" fill="#f5b84c"/></g><g><path d="m453.657 68.943c2.93-2.929 2.929-7.679 0-10.608-2.93-2.93-7.679-2.93-10.608 0-2.929 2.929-2.93 7.679 0 10.608 2.929 2.93 7.679 2.93 10.608 0z"/><path d="m506.866 69.746-64.62-64.621c-3.306-3.305-7.7-5.125-12.375-5.125-4.676 0-9.07 1.82-12.376 5.126l-281.116 281.117c-2.929 2.929-2.929 7.678 0 10.606 1.464 1.464 3.384 2.197 5.303 2.197s3.839-.732 5.303-2.197l11.969-11.969 17.457 17.457c1.464 1.464 3.384 2.197 5.303 2.197s3.839-.733 5.303-2.197c2.929-2.929 2.929-7.678 0-10.607l-17.457-17.457 47.05-47.05 17.457 17.457c1.464 1.464 3.384 2.197 5.303 2.197 1.92 0 3.839-.732 5.303-2.197 2.929-2.929 2.929-7.678 0-10.606l-17.457-17.457 47.049-47.049 17.457 17.457c1.465 1.465 3.384 2.197 5.304 2.197 1.919 0 3.839-.732 5.304-2.197 2.929-2.929 2.929-7.677 0-10.607l-17.457-17.457 47.05-47.049 17.457 17.457c1.465 1.464 3.385 2.197 5.304 2.197s3.839-.732 5.304-2.197c2.929-2.929 2.929-7.678 0-10.606l-17.457-17.457 47.05-47.05 17.458 17.457c1.464 1.465 3.384 2.197 5.303 2.197s3.839-.732 5.304-2.197c2.929-2.929 2.929-7.678-.001-10.606l-17.46-17.457 27.918-27.917c.637-.637 1.381-.732 1.768-.732s1.132.095 1.769.732l64.62 64.62c.638.637.732 1.382.732 1.769s-.096 1.131-.733 1.769l-48.019 48.019c-2.929 2.929-2.929 7.678 0 10.606 2.93 2.929 7.678 2.928 10.607 0l48.019-48.019c3.306-3.306 5.126-7.701 5.126-12.375 0-4.676-1.82-9.071-5.126-12.376z"/><path d="m262.318 317.831-178.436 178.436c-.975.976-2.562.975-3.538 0l-64.62-64.62c-.975-.975-.975-2.563 0-3.538l27.916-27.916 17.457 17.457c1.464 1.464 3.384 2.197 5.303 2.197s3.839-.733 5.303-2.197c2.929-2.929 2.929-7.678 0-10.607l-17.457-17.457 47.05-47.05 17.457 17.457c1.464 1.465 3.384 2.197 5.303 2.197s3.839-.732 5.303-2.197c2.929-2.929 2.929-7.677 0-10.606l-17.457-17.457 11.969-11.969c2.929-2.929 2.929-7.678 0-10.606-2.929-2.929-7.678-2.929-10.606 0l-108.148 108.149c-6.823 6.824-6.823 17.927.001 24.751l64.62 64.62c3.412 3.412 7.893 5.118 12.375 5.118 4.481 0 8.964-1.706 12.376-5.118l178.436-178.437c2.929-2.929 2.929-7.678 0-10.606-2.929-2.93-7.677-2.93-10.607-.001z"/><path d="m425.127 155.023-139.696 139.695c-2.929 2.929-2.929 7.678 0 10.606 1.465 1.464 3.385 2.197 5.304 2.197s3.839-.732 5.304-2.197l139.695-139.695c2.929-2.929 2.929-7.678 0-10.606-2.929-2.929-7.677-2.929-10.607 0z"/></g></g></svg>