<svg id="Capa_1" enable-background="new 0 0 512 512" height="512" viewBox="0 0 512 512" width="512" xmlns="http://www.w3.org/2000/svg"><g><g><g><path d="m438.855 34.005h-31.71c-8.876 0-16.072 7.196-16.072 16.072v22.704h63.853v-22.704c.001-8.876-7.195-16.072-16.071-16.072z" fill="#a8d0d5"/><g><g><g><path d="m472.904 489.894h-433.808c-17.45 0-31.596-14.146-31.596-31.596v-361.695c0-17.45 14.146-31.596 31.596-31.596h433.808c17.45 0 31.596 14.146 31.596 31.596v361.695c0 17.45-14.146 31.596-31.596 31.596z" fill="#8db9c2"/></g><path d="m472.904 65.007h-40.647c17.45 0 31.596 14.146 31.596 31.596v361.695c0 17.45-14.146 31.596-31.596 31.596h40.647c17.45 0 31.596-14.146 31.596-31.596v-361.695c0-17.45-14.146-31.596-31.596-31.596z" fill="#7ba0b0"/><path d="m438.753 210.997h-198.838c-8.932 0-16.173-7.241-16.173-16.173v-69.805c0-8.932 7.241-16.173 16.173-16.173h198.838c8.932 0 16.173 7.241 16.173 16.173v69.805c.001 8.932-7.24 16.173-16.173 16.173z" fill="#cbe2ff"/><path d="m438.753 108.845h-24.558v102.151h24.558c8.932 0 16.173-7.241 16.173-16.173v-69.805c.001-8.932-7.24-16.173-16.173-16.173z" fill="#9dc6fb"/></g><g fill="#688b96"><g><path d="m258.01 285h-16.268c-9.941 0-18-8.059-18-18 0-9.941 8.059-18 18-18h16.268c9.941 0 18 8.059 18 18-.001 9.941-8.059 18-18 18z"/><path d="m347.468 285h-16.268c-9.941 0-18-8.059-18-18 0-9.941 8.059-18 18-18h16.268c9.941 0 18 8.059 18 18 0 9.941-8.059 18-18 18z"/><path d="m436.927 285h-16.268c-9.941 0-18-8.059-18-18 0-9.941 8.059-18 18-18h16.268c9.941 0 18 8.059 18 18 0 9.941-8.059 18-18 18z"/></g><g><path d="m258.01 353.833h-16.268c-9.941 0-18-8.059-18-18 0-9.941 8.059-18 18-18h16.268c9.941 0 18 8.059 18 18-.001 9.942-8.059 18-18 18z"/><path d="m347.468 353.833h-16.268c-9.941 0-18-8.059-18-18 0-9.941 8.059-18 18-18h16.268c9.941 0 18 8.059 18 18 0 9.942-8.059 18-18 18z"/><path d="m436.927 353.833h-16.268c-9.941 0-18-8.059-18-18 0-9.941 8.059-18 18-18h16.268c9.941 0 18 8.059 18 18 0 9.942-8.059 18-18 18z"/></g><g><path d="m258.01 422.667h-16.268c-9.941 0-18-8.059-18-18 0-9.941 8.059-18 18-18h16.268c9.941 0 18 8.059 18 18-.001 9.941-8.059 18-18 18z"/><path d="m347.468 422.667h-16.268c-9.941 0-18-8.059-18-18 0-9.941 8.059-18 18-18h16.268c9.941 0 18 8.059 18 18 0 9.941-8.059 18-18 18z"/><path d="m436.927 422.667h-16.268c-9.941 0-18-8.059-18-18 0-9.941 8.059-18 18-18h16.268c9.941 0 18 8.059 18 18 0 9.941-8.059 18-18 18z"/></g></g><path d="m176.071 108.102v-47.742c0-21.127-17.127-38.254-38.254-38.254h-47.149c-21.127 0-38.254 17.127-38.254 38.254v47.742c0 6.986 2.332 13.772 6.626 19.283 4.294 5.511 6.626 12.297 6.626 19.283v167.011c0 6.986-2.332 13.772-6.626 19.283-4.294 5.511-6.626 12.297-6.626 19.283v47.741c0 21.127 17.127 38.254 38.254 38.254h47.149c21.127 0 38.254-17.127 38.254-38.254v-47.741c0-6.986-2.332-13.772-6.626-19.283-4.294-5.511-6.626-12.297-6.626-19.283v-167.012c0-6.986 2.332-13.772 6.626-19.283 4.294-5.51 6.626-12.296 6.626-19.282z" fill="#7ba0b0"/><path d="m169.445 127.385c4.294-5.511 6.626-12.297 6.626-19.283v-47.742c0-21.127-17.127-38.254-38.254-38.254h-40.647c21.127 0 38.254 17.127 38.254 38.254v47.741c0 6.986-2.332 13.772-6.626 19.283s-6.626 12.297-6.626 19.283v167.011c0 6.986 2.332 13.772 6.626 19.283s6.626 12.297 6.626 19.283v47.741c0 21.127-17.127 38.254-38.254 38.254h40.647c21.127 0 38.254-17.127 38.254-38.254v-47.741c0-6.986-2.332-13.772-6.626-19.283-4.294-5.51-6.626-12.297-6.626-19.283v-167.011c.001-6.986 2.332-13.772 6.626-19.282z" fill="#688b96"/></g></g></g><g><g><path d="m472.904 57.507h-10.477v-7.43c0-12.998-10.574-23.572-23.572-23.572h-31.71c-12.997 0-23.571 10.574-23.571 23.572v7.43h-200.101c-1.479-23.903-21.386-42.9-45.656-42.9h-47.149c-24.27 0-44.177 18.997-45.656 42.9h-5.916c-21.557 0-39.096 17.539-39.096 39.097v272.021c0 4.143 3.358 7.5 7.5 7.5s7.5-3.357 7.5-7.5v-272.021c0-13.287 10.81-24.097 24.096-24.097h5.818v35.595c0 8.613 2.916 17.099 8.209 23.893 3.251 4.173 5.042 9.384 5.042 14.673v167.011c0 5.29-1.791 10.501-5.042 14.674-5.294 6.794-8.209 15.279-8.209 23.893v47.741c0 25.229 20.525 45.754 45.754 45.754h47.149c25.229 0 45.754-20.525 45.754-45.754v-47.741c0-8.613-2.916-17.099-8.209-23.893-3.251-4.173-5.042-9.384-5.042-14.673v-167.013c0-5.289 1.791-10.5 5.042-14.673 5.294-6.794 8.209-15.279 8.209-23.893v-35.594h289.333c13.287 0 24.096 10.81 24.096 24.097v361.694c0 13.286-10.81 24.096-24.096 24.096h-433.808c-13.286 0-24.096-10.81-24.096-24.096v-54.1c0-4.143-3.358-7.5-7.5-7.5s-7.5 3.357-7.5 7.5v54.1c0 21.558 17.539 39.096 39.096 39.096h433.808c21.558 0 39.096-17.538 39.096-39.096v-361.694c0-21.558-17.539-39.097-39.096-39.097zm-74.33-7.43c0-4.727 3.845-8.572 8.571-8.572h31.71c4.727 0 8.572 3.846 8.572 8.572v7.43h-48.853zm-230.003 58.025c0 5.29-1.791 10.501-5.042 14.674-5.294 6.794-8.209 15.278-8.209 23.892v167.012c0 8.613 2.916 17.098 8.209 23.892 3.251 4.173 5.042 9.384 5.042 14.674v47.741c0 16.958-13.796 30.754-30.754 30.754h-47.149c-16.958 0-30.754-13.796-30.754-30.754v-47.741c0-5.29 1.791-10.501 5.042-14.674 5.294-6.794 8.209-15.279 8.209-23.893v-167.012c0-8.613-2.916-17.098-8.209-23.892-3.251-4.173-5.042-9.384-5.042-14.674v-47.741c0-16.958 13.796-30.754 30.754-30.754h47.149c16.958 0 30.754 13.796 30.754 30.754z"/><path d="m239.915 116.346h36.039c4.142 0 7.5-3.357 7.5-7.5s-3.358-7.5-7.5-7.5h-36.039c-13.054 0-23.673 10.619-23.673 23.673v69.805c0 13.054 10.62 23.674 23.673 23.674h198.838c13.054 0 23.673-10.62 23.673-23.674v-69.805c0-13.054-10.62-23.673-23.673-23.673h-127.737c-4.142 0-7.5 3.357-7.5 7.5s3.358 7.5 7.5 7.5h127.737c4.783 0 8.673 3.891 8.673 8.673v69.805c0 4.783-3.891 8.674-8.673 8.674h-198.838c-4.783 0-8.673-3.891-8.673-8.674v-69.805c0-4.783 3.89-8.673 8.673-8.673z"/><path d="m241.742 292.5h16.268c14.061 0 25.5-11.439 25.5-25.5s-11.439-25.5-25.5-25.5h-16.268c-14.061 0-25.5 11.439-25.5 25.5s11.439 25.5 25.5 25.5zm0-36h16.268c5.79 0 10.5 4.71 10.5 10.5s-4.71 10.5-10.5 10.5h-16.268c-5.79 0-10.5-4.71-10.5-10.5s4.71-10.5 10.5-10.5z"/><path d="m347.468 241.5h-16.268c-14.061 0-25.5 11.439-25.5 25.5s11.439 25.5 25.5 25.5h16.268c14.061 0 25.5-11.439 25.5-25.5s-11.439-25.5-25.5-25.5zm0 36h-16.268c-5.79 0-10.5-4.71-10.5-10.5s4.71-10.5 10.5-10.5h16.268c5.79 0 10.5 4.71 10.5 10.5s-4.71 10.5-10.5 10.5z"/><path d="m436.927 241.5h-16.268c-14.061 0-25.5 11.439-25.5 25.5s11.439 25.5 25.5 25.5h16.268c14.061 0 25.5-11.439 25.5-25.5s-11.44-25.5-25.5-25.5zm0 36h-16.268c-5.79 0-10.5-4.71-10.5-10.5s4.71-10.5 10.5-10.5h16.268c5.79 0 10.5 4.71 10.5 10.5s-4.711 10.5-10.5 10.5z"/><path d="m241.742 361.333h16.268c14.061 0 25.5-11.439 25.5-25.5s-11.439-25.5-25.5-25.5h-16.268c-14.061 0-25.5 11.439-25.5 25.5s11.439 25.5 25.5 25.5zm0-36h16.268c5.79 0 10.5 4.71 10.5 10.5s-4.71 10.5-10.5 10.5h-16.268c-5.79 0-10.5-4.71-10.5-10.5s4.71-10.5 10.5-10.5z"/><path d="m347.468 310.333h-16.268c-14.061 0-25.5 11.439-25.5 25.5s11.439 25.5 25.5 25.5h16.268c14.061 0 25.5-11.439 25.5-25.5s-11.439-25.5-25.5-25.5zm0 36h-16.268c-5.79 0-10.5-4.71-10.5-10.5s4.71-10.5 10.5-10.5h16.268c5.79 0 10.5 4.71 10.5 10.5s-4.71 10.5-10.5 10.5z"/><path d="m436.927 310.333h-16.268c-14.061 0-25.5 11.439-25.5 25.5s11.439 25.5 25.5 25.5h16.268c14.061 0 25.5-11.439 25.5-25.5s-11.44-25.5-25.5-25.5zm0 36h-16.268c-5.79 0-10.5-4.71-10.5-10.5s4.71-10.5 10.5-10.5h16.268c5.79 0 10.5 4.71 10.5 10.5s-4.711 10.5-10.5 10.5z"/><path d="m241.742 430.167h16.268c14.061 0 25.5-11.439 25.5-25.5s-11.439-25.5-25.5-25.5h-16.268c-14.061 0-25.5 11.439-25.5 25.5s11.439 25.5 25.5 25.5zm0-36h16.268c5.79 0 10.5 4.71 10.5 10.5s-4.71 10.5-10.5 10.5h-16.268c-5.79 0-10.5-4.71-10.5-10.5s4.71-10.5 10.5-10.5z"/><path d="m347.468 379.167h-16.268c-14.061 0-25.5 11.439-25.5 25.5s11.439 25.5 25.5 25.5h16.268c14.061 0 25.5-11.439 25.5-25.5s-11.439-25.5-25.5-25.5zm0 36h-16.268c-5.79 0-10.5-4.71-10.5-10.5s4.71-10.5 10.5-10.5h16.268c5.79 0 10.5 4.71 10.5 10.5s-4.71 10.5-10.5 10.5z"/><path d="m436.927 379.167h-16.268c-14.061 0-25.5 11.439-25.5 25.5s11.439 25.5 25.5 25.5h16.268c14.061 0 25.5-11.439 25.5-25.5s-11.44-25.5-25.5-25.5zm0 36h-16.268c-5.79 0-10.5-4.71-10.5-10.5s4.71-10.5 10.5-10.5h16.268c5.79 0 10.5 4.71 10.5 10.5s-4.711 10.5-10.5 10.5z"/></g></g></g></svg>