<?xml version="1.0" encoding="UTF-8" standalone="no"?>
<svg
   xmlns:dc="http://purl.org/dc/elements/1.1/"
   xmlns:cc="http://creativecommons.org/ns#"
   xmlns:rdf="http://www.w3.org/1999/02/22-rdf-syntax-ns#"
   xmlns:svg="http://www.w3.org/2000/svg"
   xmlns="http://www.w3.org/2000/svg"
   xmlns:sodipodi="http://sodipodi.sourceforge.net/DTD/sodipodi-0.dtd"
   xmlns:inkscape="http://www.inkscape.org/namespaces/inkscape"
   viewBox="0 0 2067.2221 512"
   width="2067.2222"
   height="512"
   version="1.1"
   id="svg3701"
   sodipodi:docname="logo-white.svg"
   inkscape:version="1.0.1 (3bc2e813f5, 2020-09-07)">
  <metadata
     id="metadata3707">
    <rdf:RDF>
      <cc:Work
         rdf:about="">
        <dc:format>image/svg+xml</dc:format>
        <dc:type
           rdf:resource="http://purl.org/dc/dcmitype/StillImage" />
        <dc:title></dc:title>
      </cc:Work>
    </rdf:RDF>
  </metadata>
  <defs
     id="defs3705" />
  <sodipodi:namedview
     pagecolor="#ffffff"
     bordercolor="#666666"
     borderopacity="1"
     objecttolerance="10"
     gridtolerance="10"
     guidetolerance="10"
     inkscape:pageopacity="1"
     inkscape:pageshadow="2"
     inkscape:window-width="1366"
     inkscape:window-height="705"
     id="namedview3703"
     showgrid="false"
     fit-margin-top="0"
     fit-margin-left="0"
     fit-margin-right="0"
     fit-margin-bottom="0"
     inkscape:zoom="0.25097466"
     inkscape:cx="628.54982"
     inkscape:cy="61.810848"
     inkscape:window-x="-8"
     inkscape:window-y="-8"
     inkscape:window-maximized="1"
     inkscape:current-layer="svg3701"
     inkscape:document-rotation="0"
     inkscape:pagecheckerboard="false" />
  <style
     id="style3664">
		tspan { white-space:pre }
		.shp0 { fill: #ffffff } 
	</style>
  <g
     id="g3671"
     transform="translate(-37.972923,-10.956724)" />
  <g
     id="g3673"
     transform="translate(-37.972923,-10.956724)" />
  <g
     id="g3675"
     transform="translate(-37.972923,-10.956724)" />
  <g
     id="g3677"
     transform="translate(-37.972923,-10.956724)" />
  <g
     id="g3679"
     transform="translate(-37.972923,-10.956724)" />
  <g
     id="g3681"
     transform="translate(-37.972923,-10.956724)" />
  <g
     id="g3683"
     transform="translate(-37.972923,-10.956724)" />
  <g
     id="g3685"
     transform="translate(-37.972923,-10.956724)" />
  <g
     id="g3687"
     transform="translate(-37.972923,-10.956724)" />
  <g
     id="g3689"
     transform="translate(-37.972923,-10.956724)" />
  <g
     id="g3691"
     transform="translate(-37.972923,-10.956724)" />
  <g
     id="g3693"
     transform="translate(-37.972923,-10.956724)" />
  <g
     id="g3695"
     transform="translate(-37.972923,-10.956724)" />
  <g
     id="g3697"
     transform="translate(-37.972923,-10.956724)" />
  <g
     id="g3699"
     transform="translate(-37.972923,-10.956724)" />
  <text
     xml:space="preserve"
     style="font-style:normal;font-variant:normal;font-weight:normal;font-stretch:normal;font-size:466.667px;line-height:1.25;font-family:sans-serif;-inkscape-font-specification:sans-serif;fill:#ffffff;fill-opacity:1;stroke:none"
     x="515.00745"
     y="443.92169"
     id="text3711"><tspan
       sodipodi:role="line"
       id="tspan3709"
       x="515.00745"
       y="443.92169"
       style="font-style:normal;font-variant:normal;font-weight:normal;font-stretch:normal;font-size:466.667px;font-family:sans-serif;-inkscape-font-specification:sans-serif;fill:#ffffff">LectuS</tspan></text>
  <g
     id="g100">
    <g
       id="g14">
      <path
         d="M 397,122 392,62 97,76 26,78 25,130 h 16 z"
         fill="#9c6750"
         id="path2" />
      <g
         fill="#844f3e"
         id="g12">
        <path
           d="m 152,116 h 16 l -2,-30 h -13 z"
           id="path4" />
        <path
           d="m 180,116 80,-3 -3,-29 -77,2 z"
           id="path6" />
        <path
           d="m 365,111 h 22 l -3,-34 -22,5 12,14 z"
           id="path8" />
        <path
           d="M 37,86 35,121 55,116 45,103 57,87 Z"
           id="path10" />
      </g>
    </g>
    <g
       id="g24">
      <path
         d="M 21,426 H 461 L 450,334 24,346 Z"
         fill="#d68034"
         id="path16" />
      <g
         fill="#b66624"
         id="g22">
        <path
           d="m 129,398 284,-10 -2,-17 -282,10 z"
           id="path18" />
        <path
           d="m 116,382 -54,2 -3,17 56,-2 z"
           id="path20" />
      </g>
    </g>
    <g
       id="g34">
      <path
         d="m 39,204 201,3 211,-8 h 28 l -5,-82 -433,13 z"
         fill="#d68034"
         id="path26" />
      <g
         fill="#b66624"
         id="g32">
        <path
           d="m 457,130 -404,8 v 56 l 411,-9 z m -397,55 2,-40 385,-5 5,34 z"
           id="path28" />
        <path
           d="m 166,164 85,-17 81,15 -81,11 z"
           id="path30" />
      </g>
    </g>
    <g
       id="g50">
      <path
         d="m 492,331 -6,-84 -30,1 -211,-3 -171,11 -6,75 z"
         fill="#c3aa37"
         id="path36" />
      <g
         fill="#90802c"
         id="g48">
        <path
           d="m 104,268 -4,37 h 17 v -37 z"
           id="path38" />
        <path
           d="m 131,268 -2,37 14,-1 -3,-36 z"
           id="path40" />
        <path
           d="m 334,282 c 0,13 -34.445,14 -72,14 -37.555,0 -64,-6.268 -64,-14 0,-7.732 30.445,-14 68,-14 37.555,0 68,8 68,14 z"
           id="path42" />
        <path
           d="m 462,296 14,-1 -3,-38 -13,1 z"
           id="path44" />
        <path
           d="m 447,295 -20,1 v -37 h 17 z"
           id="path46" />
      </g>
    </g>
    <g
       id="g60">
      <path
         d="M 0,512 H 512 L 504,408 5,424 Z"
         fill="#9c6750"
         id="path52" />
      <g
         fill="#844f3e"
         id="g58">
        <path
           d="m 58,496 383,-5 -5,-60 -376,12 z"
           id="path54" />
        <path
           d="m 461,489 h 34 l -6,-63 -32,3 z"
           id="path56" />
      </g>
    </g>
    <g
       id="g70">
      <path
         d="M 0,359 512,346 507,303 4,321 Z"
         fill="#f3d544"
         id="path62" />
      <g
         fill="#d68034"
         id="g68">
        <path
           d="m 479,325 c 0,6.627 -10.745,13 -24,13 -8,0 -20,-5.373 -20,-12 0,-6.627 6.745,-12 20,-12 13.255,0 24,4.373 24,11 z"
           id="path64" />
        <path
           d="M 416,332 53,344 v -8 l 363,-15 z"
           id="path66" />
      </g>
    </g>
    <g
       id="g82">
      <path
         d="m 8,257 66,-1 382,-8 -5,-49 -412,5 H 11 Z"
         fill="#f3d544"
         id="path72" />
      <g
         fill="#d68034"
         id="g80">
        <path
           d="m 89,222 v 13 c 0,0 14.5,-4.5 27,8 l 242,-4 c 0,0 7,-11 25,-11 l -2,-12 c 0,0 -18,3 -28,-7 l -236,3 c 0,0 -1,10 -28,10 z"
           id="path74" />
        <path
           d="m 434,206 5,35 h -15 l -1,-34 z"
           id="path76" />
        <path
           d="m 23,247 h 15 l 2,-34 H 28 Z"
           id="path78" />
      </g>
    </g>
    <g
       id="g98">
      <path
         d="M 97,76 483,68 478,0 98,10 Z"
         fill="#f3d544"
         id="path84" />
      <g
         fill="#d68034"
         id="g96">
        <path
           d="M 137,41 163,58 191,42 157,24 Z"
           id="path86" />
        <path
           d="M 362,37 399,52 426,34 400,15 Z"
           id="path88" />
        <path
           d="m 196,32 9,8 -6,9 157,-3 -8,-9 8,-8 z"
           id="path90" />
        <path
           d="M 113.158,75.665 129,75.337 V 9.184 l -11.37,0.299 z"
           id="path92" />
        <path
           d="M 443,68.829 463.448,68.405 456.747,0.559 443,0.921 Z"
           id="path94" />
      </g>
    </g>
  </g>
</svg>
