<?xml version="1.0"?>
<svg xmlns="http://www.w3.org/2000/svg" xmlns:xlink="http://www.w3.org/1999/xlink" xmlns:svgjs="http://svgjs.com/svgjs" version="1.1" width="512" height="512" x="0" y="0" viewBox="0 0 512 512" style="enable-background:new 0 0 512 512" xml:space="preserve" class=""><g transform="matrix(-1,-2.4492935982947064e-16,-2.4492935982947064e-16,1,512.0000305175781,1.1368683772161603e-13)"><g xmlns="http://www.w3.org/2000/svg"><path d="m429.5 397.5h-30l-106 60 136-30c8.284 0 15-6.716 15-15s-6.716-15-15-15z" fill="#894d40" data-original="#894d40" style=""/><path d="m414.5 412.5c0-8.284-6.716-15-15-15h-242c-8.284 0-15 6.716-15 15s6.716 15 15 15l136 30 106-30c8.284 0 15-6.716 15-15z" fill="#995e49" data-original="#995e49" style="" class=""/><path d="m394.006 427.5h-236.506l-13.859 21.712c-10.056 15.753-27.453 25.288-46.141 25.288v15h392z" fill="#b88567" data-original="#b88567" style="" class=""/><path d="m443.359 449.212-13.859-21.712h-35.494l13.859 21.712c10.055 15.753 27.452 25.288 46.141 25.288l35.494 15v-15c-18.689 0-36.086-9.535-46.141-25.288z" fill="#aa6f51" data-original="#aa6f51" style=""/><path d="m203.5 150-30 37.5 30 37.5h45v-75z" fill="#ffd478" data-original="#ffd478" style=""/><path d="m173.5 150-30 37.5 30 37.5h30v-75z" fill="#894d40" data-original="#894d40" style=""/><path d="m45 150c-20.711 0-37.5 16.789-37.5 37.5s16.789 37.5 37.5 37.5h128.5v-75z" fill="#995e49" data-original="#995e49" style="" class=""/><path d="m248.5 150h60v75h-60z" fill="#ffd478" data-original="#ffd478" style=""/><path d="m414.5 82.5h60v210h-60z" fill="#ffd478" data-original="#ffd478" style=""/><path d="m293.5 82.5h151v210h-151z" fill="#ffe7ad" data-original="#ffe7ad" style=""/><path d="m489.5 474.5h-30v30h30c8.284 0 15-6.716 15-15s-6.716-15-15-15z" fill="#894d40" data-original="#894d40" style=""/><path d="m474.5 489.5c0-8.284-6.716-15-15-15h-362c-8.284 0-15 6.716-15 15s6.716 15 15 15h362c8.284 0 15-6.716 15-15z" fill="#995e49" data-original="#995e49" style="" class=""/><path d="m474.5 277.5h-30l-60.5 60 90.5-30c8.284 0 15-6.716 15-15s-6.716-15-15-15z" fill="#894d40" data-original="#894d40" style=""/><path d="m459.5 292.5c0-8.284-6.716-15-15-15h-151c-8.284 0-15 6.716-15 15s6.716 15 15 15l90.5 30 60.5-30c8.284 0 15-6.716 15-15z" fill="#995e49" data-original="#995e49" style="" class=""/><path d="m474.5 97.5h-30l-60.5-60 90.5 30c8.284 0 15 6.716 15 15s-6.716 15-15 15z" fill="#894d40" data-original="#894d40" style=""/><path d="m459.5 82.5c0 8.284-6.716 15-15 15h-151c-8.284 0-15-6.716-15-15s6.716-15 15-15l90.5-30 60.5 30c8.284 0 15 6.716 15 15z" fill="#995e49" data-original="#995e49" style="" class=""/><path d="m263.5 225v-75c0-8.284-6.716-15-15-15s-15 6.716-15 15v75c0 8.284 6.716 15 15 15s15-6.716 15-15z" fill="#995e49" data-original="#995e49" style="" class=""/><path d="m474.5 7.5h-30v60h30c16.569 0 30-13.431 30-30s-13.431-30-30-30z" fill="#aa6f51" data-original="#aa6f51" style=""/><path d="m474.5 37.5c0-16.569-13.431-30-30-30h-151c-16.569 0-30 13.431-30 30s13.431 30 30 30h151c16.569 0 30-13.431 30-30z" fill="#b88567" data-original="#b88567" style="" class=""/><path d="m474.5 307.5h-30v60h30c16.569 0 30-13.431 30-30s-13.431-30-30-30z" fill="#aa6f51" data-original="#aa6f51" style=""/><path d="m474.5 337.5c0-16.569-13.431-30-30-30h-151c-16.569 0-30 13.431-30 30s13.431 30 30 30h151c16.569 0 30-13.431 30-30z" fill="#b88567" data-original="#b88567" style="" class=""/><path d="m489.5 467c-16.211 0-31.097-8.158-39.818-21.823l-8.564-13.416c6.517-3.945 10.882-11.103 10.882-19.261 0-12.407-10.094-22.5-22.5-22.5h-272c-12.407 0-22.5 10.093-22.5 22.5 0 8.159 4.365 15.317 10.882 19.262l-8.563 13.415c-8.722 13.665-23.608 21.823-39.819 21.823-12.407 0-22.5 10.093-22.5 22.5s10.093 22.5 22.5 22.5h392c12.406 0 22.5-10.093 22.5-22.5s-10.094-22.5-22.5-22.5zm-339.538-13.752 13.859-21.712c1.474-2.309 1.572-5.238.255-7.64-1.316-2.402-3.838-3.896-6.577-3.896-4.136 0-7.5-3.364-7.5-7.5s3.364-7.5 7.5-7.5h272c4.136 0 7.5 3.364 7.5 7.5s-3.364 7.5-7.5 7.5h-242c-4.142 0-7.5 3.358-7.5 7.5s3.358 7.5 7.5 7.5h237.89l11.648 18.248c3.335 5.225 7.358 9.835 11.906 13.752h-310.887c4.548-3.918 8.571-8.527 11.906-13.752zm339.538 43.752h-392c-4.136 0-7.5-3.364-7.5-7.5s3.364-7.5 7.5-7.5h392c4.136 0 7.5 3.364 7.5 7.5s-3.364 7.5-7.5 7.5z" fill="#000000" data-original="#000000" style="" class=""/><path d="m493.191 305.011c2.404-3.58 3.809-7.884 3.809-12.511 0-9.777-6.271-18.114-15-21.21v-167.58c8.729-3.096 15-11.433 15-21.21 0-4.627-1.405-8.931-3.809-12.511 11.23-6.486 18.809-18.615 18.809-32.489 0-20.678-16.822-37.5-37.5-37.5h-181c-20.678 0-37.5 16.822-37.5 37.5 0 13.874 7.579 26.003 18.809 32.489-2.404 3.58-3.809 7.884-3.809 12.511 0 9.777 6.271 18.114 15 21.21v38.79h-16.29c-3.096-8.729-11.433-15-21.21-15-9.778 0-18.114 6.271-21.21 15h-182.29c-24.813 0-45 20.187-45 45s20.187 45 45 45h182.29c3.096 8.729 11.432 15 21.21 15 9.777 0 18.114-6.271 21.21-15h16.29v38.79c-8.729 3.096-15 11.433-15 21.21 0 4.627 1.405 8.931 3.809 12.511-11.23 6.486-18.809 18.615-18.809 32.489 0 20.678 16.822 37.5 37.5 37.5h181c20.678 0 37.5-16.822 37.5-37.5 0-13.874-7.579-26.003-18.809-32.489zm-26.191-200.011v165h-166v-165zm-173.5-90h181c12.406 0 22.5 10.093 22.5 22.5s-10.094 22.5-22.5 22.5h-181c-12.406 0-22.5-10.093-22.5-22.5s10.094-22.5 22.5-22.5zm181 60c4.136 0 7.5 3.364 7.5 7.5s-3.364 7.5-7.5 7.5h-181c-4.136 0-7.5-3.364-7.5-7.5s3.364-7.5 7.5-7.5zm-248.5 82.5v60h-15v-60zm-211 30c0-16.542 13.458-30 30-30h151v60h-151c-16.542 0-30-13.458-30-30zm241 37.5c0 4.136-3.364 7.5-7.5 7.5s-7.5-3.364-7.5-7.5v-75c0-4.136 3.364-7.5 7.5-7.5s7.5 3.364 7.5 7.5zm15-7.5v-60h15v60zm15 75c0-4.136 3.364-7.5 7.5-7.5h181c4.136 0 7.5 3.364 7.5 7.5s-3.364 7.5-7.5 7.5h-181c-4.136 0-7.5-3.364-7.5-7.5zm188.5 67.5h-181c-12.406 0-22.5-10.093-22.5-22.5s10.094-22.5 22.5-22.5h181c12.406 0 22.5 10.093 22.5 22.5s-10.094 22.5-22.5 22.5z" fill="#000000" data-original="#000000" style="" class=""/></g></g></svg>
