<svg height="512pt" viewBox="-37 0 512 512.00203" width="512pt" xmlns="http://www.w3.org/2000/svg"><path d="m431.167969 60.847656v390.304688c0 29.40625-23.835938 53.242187-53.242188 53.242187h-277.785156c-29.40625 0-53.242187-23.835937-53.242187-53.242187v-390.304688c0-29.40625 23.835937-53.242187 53.242187-53.242187h277.785156c29.40625 0 53.242188 23.835937 53.242188 53.242187zm0 0" fill="#49d8e4"/><path d="m431.167969 60.847656v390.304688c0 29.40625-23.835938 53.242187-53.242188 53.242187h-242.804687c-29.402344 0-53.242188-23.835937-53.242188-53.242187v-390.304688c0-29.40625 23.839844-53.242187 53.242188-53.242187h242.804687c29.40625 0 53.242188 23.835937 53.242188 53.242187zm0 0" fill="#6ce7f3"/><g fill="#e5a505"><path d="m89.726562 116.078125c0 15.117187-12.246093 27.378906-27.367187 27.378906h-27.375c-7.554687 0-14.410156-3.0625-19.355469-8.023437-4.960937-4.957032-8.023437-11.792969-8.023437-19.355469 0-3.589844.691406-7.007813 1.949219-10.140625 4.023437-10.097656 13.890624-17.234375 25.429687-17.234375h27.375c7.554687 0 14.398437 3.058594 19.359375 8.019531 2.605469 2.605469 4.683594 5.738282 6.0625 9.214844 1.257812 3.132812 1.945312 6.550781 1.945312 10.140625zm0 0"/><path d="m89.726562 302.636719c0 15.117187-12.246093 27.378906-27.367187 27.378906h-27.375c-7.554687 0-14.410156-3.0625-19.355469-8.023437-4.960937-4.945313-8.023437-11.800782-8.023437-19.355469 0-3.578125.691406-7.007813 1.949219-10.140625 4.023437-10.097656 13.890624-17.234375 25.429687-17.234375h27.375c7.554687 0 14.398437 3.0625 19.359375 8.019531 2.605469 2.605469 4.683594 5.726562 6.0625 9.214844 1.257812 3.132812 1.945312 6.5625 1.945312 10.140625zm0 0"/><path d="m89.726562 209.363281c0 15.117188-12.246093 27.375-27.367187 27.375h-27.375c-7.554687 0-14.410156-3.0625-19.355469-8.019531-4.960937-4.957031-8.023437-11.792969-8.023437-19.355469 0-3.589843.691406-7.007812 1.949219-10.140625 4.023437-10.097656 13.890624-17.238281 25.429687-17.238281h27.375c7.554687 0 14.398437 3.0625 19.359375 8.023437 2.605469 2.605469 4.683594 5.738282 6.0625 9.214844 1.257812 3.132813 1.945312 6.550782 1.945312 10.140625zm0 0"/><path d="m89.726562 395.921875c0 15.117187-12.246093 27.375-27.367187 27.375h-27.375c-7.554687 0-14.410156-3.058594-19.355469-8.019531-4.960937-4.949219-8.023437-11.800782-8.023437-19.355469 0-3.578125.691406-7.007813 1.949219-10.140625 4.023437-10.097656 13.890624-17.238281 25.429687-17.238281h27.375c7.554687 0 14.398437 3.0625 19.359375 8.023437 2.605469 2.605469 4.683594 5.726563 6.0625 9.214844 1.257812 3.132812 1.945312 6.5625 1.945312 10.140625zm0 0"/></g><path d="m87.78125 105.9375c-4.027344 10.101562-13.882812 17.238281-25.421875 17.238281h-27.375c-7.554687 0-14.410156-3.0625-19.355469-8.019531-2.609375-2.605469-4.695312-5.738281-6.074218-9.21875 4.023437-10.097656 13.890624-17.234375 25.429687-17.234375h27.375c7.554687 0 14.398437 3.058594 19.359375 8.019531 2.605469 2.605469 4.683594 5.738282 6.0625 9.214844zm0 0" fill="#ffc217"/><path d="m87.78125 292.496094c-4.027344 10.101562-13.882812 17.238281-25.421875 17.238281h-27.375c-7.554687 0-14.410156-3.0625-19.355469-8.019531-2.609375-2.605469-4.695312-5.730469-6.074218-9.21875 4.023437-10.097656 13.890624-17.234375 25.429687-17.234375h27.375c7.554687 0 14.398437 3.0625 19.359375 8.019531 2.605469 2.605469 4.683594 5.726562 6.0625 9.214844zm0 0" fill="#ffc217"/><path d="m87.78125 199.222656c-4.027344 10.101563-13.882812 17.226563-25.421875 17.226563h-27.375c-7.554687 0-14.410156-3.0625-19.355469-8.007813-2.609375-2.605468-4.695312-5.742187-6.074218-9.21875 4.023437-10.097656 13.890624-17.238281 25.429687-17.238281h27.375c7.554687 0 14.398437 3.0625 19.359375 8.023437 2.605469 2.605469 4.683594 5.738282 6.0625 9.214844zm0 0" fill="#ffc217"/><path d="m87.78125 385.78125c-4.027344 10.101562-13.882812 17.226562-25.421875 17.226562h-27.375c-7.554687 0-14.410156-3.0625-19.355469-8.007812-2.609375-2.605469-4.695312-5.738281-6.074218-9.21875 4.023437-10.097656 13.890624-17.238281 25.429687-17.238281h27.375c7.554687 0 14.398437 3.0625 19.359375 8.023437 2.605469 2.605469 4.683594 5.726563 6.0625 9.214844zm0 0" fill="#ffc217"/><path d="m286.734375 280.425781c24.582031-13.636719 41.222656-39.847656 41.222656-69.953125 0-44.152344-35.792969-79.945312-79.945312-79.945312-44.152344 0-79.945313 35.792968-79.945313 79.945312 0 30.105469 16.640625 56.316406 41.222656 69.953125-24.582031 13.636719-41.222656 39.851563-41.222656 69.953125h159.890625c0-30.105468-16.640625-56.316406-41.222656-69.953125zm0 0" fill="#49d8e4"/><path d="m431.167969 151.976562c-4.199219 0-7.605469 3.40625-7.605469 7.605469v291.570313c0 25.164062-20.472656 45.636718-45.636719 45.636718h-223.808593c-4.199219 0-7.605469 3.40625-7.605469 7.605469s3.40625 7.605469 7.605469 7.605469h223.808593c33.550781 0 60.847657-27.296875 60.847657-60.847656v-291.570313c0-4.199219-3.40625-7.605469-7.605469-7.605469zm0 0"/><path d="m377.925781 0h-277.785156c-33.550781 0-60.847656 27.296875-60.847656 60.847656v20.25h-4.3125c-19.289063 0-34.980469 15.691406-34.980469 34.980469s15.691406 34.980469 34.980469 34.980469h4.3125v23.320312h-4.3125c-19.289063 0-34.980469 15.691406-34.980469 34.980469s15.691406 34.980469 34.980469 34.980469h4.3125v23.320312h-4.3125c-19.289063 0-34.980469 15.691406-34.980469 34.980469s15.691406 34.980469 34.980469 34.980469h4.3125v23.320312h-4.3125c-19.289063 0-34.980469 15.691406-34.980469 34.980469s15.691406 34.980469 34.980469 34.980469h4.3125v20.25c0 33.554687 27.296875 60.851562 60.847656 60.851562h23.554687c4.199219 0 7.605469-3.40625 7.605469-7.605468 0-4.199219-3.40625-7.605469-7.605469-7.605469h-23.554687c-25.164063 0-45.636719-20.472657-45.636719-45.640625v-20.25h7.851563c19.289062 0 34.980469-15.691406 34.980469-34.980469s-15.691407-34.980469-34.980469-34.980469h-7.851563v-23.320312h7.851563c19.289062 0 34.980469-15.691406 34.980469-34.980469s-15.691407-34.980469-34.980469-34.980469h-7.851563v-23.320312h7.851563c19.289062 0 34.980469-15.691406 34.980469-34.980469s-15.691407-34.980469-34.980469-34.980469h-7.851563v-23.320312h7.851563c19.289062 0 34.980469-15.691406 34.980469-34.980469 0-19.285156-15.691407-34.980469-34.980469-34.980469h-7.851563v-20.25c0-25.164062 20.472656-45.636718 45.636719-45.636718h277.785156c25.164063 0 45.636719 20.472656 45.636719 45.636718v68.3125c0 4.199219 3.40625 7.605469 7.605469 7.605469s7.605469-3.40625 7.605469-7.605469v-68.3125c0-33.550781-27.296876-60.847656-60.847657-60.847656zm-295.800781 395.917969c0 10.902343-8.867188 19.773437-19.769531 19.773437h-27.375c-10.902344 0-19.769531-8.871094-19.769531-19.773437 0-10.902344 8.867187-19.769531 19.769531-19.769531h11.886719.03125.027343 15.429688c10.902343 0 19.769531 8.867187 19.769531 19.769531zm0-93.277344c0 10.898437-8.867188 19.769531-19.769531 19.769531h-15.449219s-.003906 0-.007812 0c-.003907 0-.007813 0-.011719 0h-11.90625c-10.902344 0-19.769531-8.867187-19.769531-19.769531s8.867187-19.773437 19.769531-19.773437h27.375c10.902343 0 19.769531 8.871093 19.769531 19.773437zm0-93.28125c0 10.902344-8.867188 19.773437-19.769531 19.773437h-27.375c-10.902344 0-19.769531-8.871093-19.769531-19.773437s8.867187-19.769531 19.769531-19.769531h11.878906.039063.039062 15.417969c10.902343 0 19.769531 8.867187 19.769531 19.769531zm0-93.28125c0 10.902344-8.867188 19.773437-19.769531 19.773437h-27.375c-10.902344 0-19.769531-8.871093-19.769531-19.773437 0-10.898437 8.867187-19.769531 19.769531-19.769531h27.375c10.902343 0 19.769531 8.867187 19.769531 19.769531zm0 0"/><path d="m160.460938 350.378906c0 4.199219 3.40625 7.605469 7.605468 7.605469h159.890625c4.199219 0 7.605469-3.40625 7.605469-7.605469 0-27.703125-13.121094-53.539062-34.902344-69.953125 21.78125-16.414062 34.902344-42.25 34.902344-69.953125 0-48.273437-39.277344-87.550781-87.550781-87.550781-48.277344 0-87.550781 39.277344-87.550781 87.550781 0 27.699219 13.117187 53.539063 34.898437 69.953125-21.78125 16.414063-34.898437 42.25-34.898437 69.953125zm52.515624-76.601562c-23.011718-12.765625-37.308593-37.023438-37.308593-63.304688 0-39.890625 32.453125-72.339844 72.34375-72.339844 39.886719 0 72.339843 32.449219 72.339843 72.339844 0 26.28125-14.296874 50.539063-37.304687 63.304688-2.417969 1.339844-3.917969 3.886718-3.917969 6.648437 0 2.765625 1.5 5.308594 3.917969 6.652344 20.773437 11.523437 34.441406 32.410156 36.90625 55.695313h-143.882813c2.464844-23.285157 16.132813-44.171876 36.90625-55.695313 2.417969-1.339844 3.914063-3.886719 3.914063-6.652344 0-2.761719-1.496094-5.308593-3.914063-6.648437zm0 0"/><path d="m344.585938 402.917969c4.199218 0 7.605468-3.40625 7.605468-7.605469s-3.40625-7.605469-7.605468-7.605469h-193.148438c-4.199219 0-7.605469 3.40625-7.605469 7.605469s3.40625 7.605469 7.605469 7.605469zm0 0"/></svg>