<?xml version="1.0"?>
<svg xmlns="http://www.w3.org/2000/svg" xmlns:xlink="http://www.w3.org/1999/xlink" xmlns:svgjs="http://svgjs.com/svgjs" version="1.1" width="512" height="512" x="0" y="0" viewBox="0 0 512 512" style="enable-background:new 0 0 512 512" xml:space="preserve" class=""><g><path xmlns="http://www.w3.org/2000/svg" d="m336 424h104a32 32 0 0 1 32 32 32 32 0 0 1 -32 32h-104z" fill="#dadada" data-original="#de9400" style="" class=""/><path xmlns="http://www.w3.org/2000/svg" d="m336 488h-264a32 32 0 0 1 -32-32 32 32 0 0 1 32-32h264z" fill="#28a745" data-original="#f6bb00" style="" class=""/><path xmlns="http://www.w3.org/2000/svg" d="m440 157.25v266.75h-368v-368a32.004 32.004 0 0 1 32-32h202.75a32.05751 32.05751 0 0 1 22.62012 9.37l101.25976 101.26a32.06227 32.06227 0 0 1 9.37012 22.62z" fill="#548aff" data-original="#548aff" style="" class=""/><path xmlns="http://www.w3.org/2000/svg" d="m437.12012 144h-85.12012a32.00409 32.00409 0 0 1 -32-32l.39014-84.93994a31.73559 31.73559 0 0 1 8.98 6.30994l101.25974 101.26a31.82824 31.82824 0 0 1 6.49024 9.37z" fill="#7dafff" data-original="#7dafff" style="" class=""/><path xmlns="http://www.w3.org/2000/svg" d="m232 88h48v16h-48z" fill="#000000" data-original="#000000" style="" class=""/><path xmlns="http://www.w3.org/2000/svg" d="m160 88h48v16h-48z" fill="#000000" data-original="#000000" style="" class=""/><path xmlns="http://www.w3.org/2000/svg" d="m192 136h88v16h-88z" fill="#000000" data-original="#000000" style="" class=""/><path xmlns="http://www.w3.org/2000/svg" d="m120 136h48v16h-48z" fill="#000000" data-original="#000000" style="" class=""/><path xmlns="http://www.w3.org/2000/svg" d="m352 184h40v16h-40z" fill="#000000" data-original="#000000" style="" class=""/><path xmlns="http://www.w3.org/2000/svg" d="m264 184h64v16h-64z" fill="#000000" data-original="#000000" style="" class=""/><path xmlns="http://www.w3.org/2000/svg" d="m120 184h128v16h-128z" fill="#000000" data-original="#000000" style="" class=""/><path xmlns="http://www.w3.org/2000/svg" d="m296 232h96v16h-96z" fill="#000000" data-original="#000000" style="" class=""/><path xmlns="http://www.w3.org/2000/svg" d="m200 232h72v16h-72z" fill="#000000" data-original="#000000" style="" class=""/><path xmlns="http://www.w3.org/2000/svg" d="m120 232h56v16h-56z" fill="#000000" data-original="#000000" style="" class=""/><path xmlns="http://www.w3.org/2000/svg" d="m344 280h48v16h-48z" fill="#000000" data-original="#000000" style="" class=""/><path xmlns="http://www.w3.org/2000/svg" d="m224 280h96v16h-96z" fill="#000000" data-original="#000000" style="" class=""/><path xmlns="http://www.w3.org/2000/svg" d="m120 280h80v16h-80z" fill="#000000" data-original="#000000" style="" class=""/><path xmlns="http://www.w3.org/2000/svg" d="m480 456a40.068 40.068 0 0 0 -32-39.19507v-259.55a39.73513 39.73513 0 0 0 -11.71582-28.28418l-101.25488-101.25542a39.74137 39.74137 0 0 0 -28.28418-11.71533h-202.74512a40.04552 40.04552 0 0 0 -40 40v360.80493a40.00178 40.00178 0 0 0 8 79.19507h368a40.04552 40.04552 0 0 0 40-40zm-376-424h202.74512a24.18908 24.18908 0 0 1 5.25488.581v79.419a40.04552 40.04552 0 0 0 40 40h48v-16h-48a24.02718 24.02718 0 0 1 -24-24v-68.68652l96.9707 96.97119a23.83889 23.83889 0 0 1 7.0293 16.97021v258.74512h-352v-360a24.02718 24.02718 0 0 1 24-24zm-56 424a24.02718 24.02718 0 0 1 24-24h256v48h-256a24.02718 24.02718 0 0 1 -24-24zm392 24h-96v-48h96a24 24 0 0 1 0 48z" fill="#000000" data-original="#000000" style="" class=""/><path xmlns="http://www.w3.org/2000/svg" d="m320 376h16v16h-16z" fill="#000000" data-original="#000000" style="" class=""/><path xmlns="http://www.w3.org/2000/svg" d="m120 376h120v16h-120z" fill="#000000" data-original="#000000" style="" class=""/><path xmlns="http://www.w3.org/2000/svg" d="m256 376h16v16h-16z" fill="#000000" data-original="#000000" style="" class=""/><path xmlns="http://www.w3.org/2000/svg" d="m288 376h16v16h-16z" fill="#000000" data-original="#000000" style="" class=""/></g></svg>
