<svg id="Layer_1" enable-background="new 0 0 511.988 511.988" height="512" viewBox="0 0 511.988 511.988" width="512" xmlns="http://www.w3.org/2000/svg"><g><g clip-rule="evenodd" fill-rule="evenodd"><path d="m132.704 115.923 17.483-69.93c1.334-5.335-4.5-10-10-10h-100c-5.5 0-8.666 4.664-10 10l-20.001 80c-1.334 5.336 4.5 10 10 10h100c5.499 0 8.666-4.665 10-10z" fill="#60a4ff"/><path d="m491.801 45.994h-341.614l-17.483 69.93h346.615c5.497 0 8.667-4.667 10-10l12.482-49.93c1.333-5.335-4.5-10-10-10z" fill="#6d91ac"/><path d="m132.704 285.923 17.483-69.93c1.334-5.335-4.5-10-10-10h-100c-5.5 0-8.666 4.664-10 10l-20.001 80c-1.334 5.336 4.5 10 10 10h100c5.499 0 8.666-4.665 10-10z" fill="#ff764e"/><path d="m491.801 215.994h-341.614l-17.483 69.93h346.615c5.497 0 8.667-4.667 10-10l12.482-49.93c1.333-5.335-4.5-10-10-10z" fill="#6d91ac"/><path d="m150.187 385.994c1.334-5.335-4.5-10-10-10h-100c-5.5 0-8.666 4.664-10 10l-20.001 80c-1.334 5.336 4.5 10 10 10h100c5.499 0 8.666-4.665 10-10l2.518-10.07z" fill="#cbe558"/><path d="m491.801 385.994h-341.614l-17.483 69.93h346.615c5.497 0 8.667-4.667 10-10l12.482-49.93c1.333-5.335-4.5-10-10-10z" fill="#6d91ac"/></g><g><path d="m20.187 145.994h100c9.443 0 16.992-6.734 19.702-17.575l.624-2.496h120.796c5.523 0 10-4.477 10-10s-4.477-10-10-10h-115.797l12.483-49.93h333.498l-11.875 47.504c-.305 1.218-.686 2.005-.947 2.426h-127.363c-5.523 0-10 4.477-10 10s4.477 10 10 10h128.011c9.442 0 16.991-6.734 19.702-17.575l12.482-49.93c1.243-4.974.07-10.242-3.219-14.454-3.838-4.917-10.154-7.971-16.482-7.971h-333.778c-.406-.696-.845-1.378-1.353-2.029-3.839-4.917-10.155-7.971-16.483-7.971h-100c-9.442 0-16.991 6.734-19.701 17.574l-20.001 80c-1.243 4.974-.07 10.243 3.218 14.455 3.838 4.918 10.154 7.972 16.483 7.972zm19.702-97.575c.304-1.217.684-2.004.945-2.425h99.045l-19.394 77.575c-.304 1.217-.684 2.004-.945 2.425h-99.046z"/><path d="m491.801 375.994h-333.777c-.406-.696-.845-1.379-1.353-2.029-3.838-4.917-10.154-7.971-16.483-7.971h-100c-9.442 0-16.991 6.734-19.701 17.575l-20.001 80c-1.243 4.974-.07 10.243 3.218 14.455 3.838 4.917 10.155 7.971 16.483 7.971h100c9.443 0 16.992-6.734 19.702-17.575l.624-2.496h338.807c9.442 0 16.991-6.734 19.702-17.575l12.482-49.93c1.243-4.974.07-10.242-3.218-14.454-3.841-4.917-10.156-7.971-16.485-7.971zm-372.261 90h-99.046l19.395-77.575c.304-1.217.684-2.004.945-2.425h99.045l-19.395 77.575c-.303 1.217-.683 2.004-.944 2.425zm360.078-22.497c-.305 1.218-.686 2.005-.947 2.426h-333.159l12.483-49.93h333.498z"/><path d="m491.801 205.994h-333.777c-.406-.696-.845-1.379-1.353-2.029-3.838-4.917-10.154-7.971-16.483-7.971h-100c-9.442 0-16.991 6.734-19.701 17.575l-20.001 80c-1.243 4.974-.07 10.243 3.218 14.455 3.839 4.917 10.155 7.971 16.483 7.971h100c9.443 0 16.992-6.734 19.702-17.575l.624-2.496h338.807c9.442 0 16.991-6.734 19.702-17.575l12.482-49.93c1.243-4.974.07-10.242-3.219-14.454-3.84-4.917-10.155-7.971-16.484-7.971zm-372.261 90h-99.046l19.395-77.575c.304-1.217.684-2.004.945-2.425h99.045l-19.395 77.575c-.303 1.217-.684 2.004-.944 2.425zm360.078-22.497c-.305 1.218-.686 2.005-.947 2.426h-333.159l12.483-49.93h333.498z"/><path d="m306.304 105.923c-5.523 0-9.996 4.477-9.996 10s4.48 10 10.003 10 10-4.477 10-10-4.477-10-10-10z"/></g></g></svg>