<?xml version="1.0"?>
<svg xmlns="http://www.w3.org/2000/svg" xmlns:xlink="http://www.w3.org/1999/xlink" xmlns:svgjs="http://svgjs.com/svgjs" version="1.1" width="512" height="512" x="0" y="0" viewBox="0 0 512 512" style="enable-background:new 0 0 512 512" xml:space="preserve" class=""><g>
<g xmlns="http://www.w3.org/2000/svg">
	<g transform="translate(1 1)">
		<path style="" d="M24.6,92.867h460.8c9.426,0,17.067,7.641,17.067,17.067v290.133    c0,9.426-7.641,17.067-17.067,17.067H24.6c-9.426,0-17.067-7.641-17.067-17.067V109.933C7.533,100.508,15.174,92.867,24.6,92.867z    " fill="#1865a9" data-original="#6a1b9a" class=""/>
		<path style="" d="M24.6,92.867h435.2c9.426,0,17.067,7.641,17.067,17.067v290.133    c0,9.426-7.641,17.067-17.067,17.067H24.6c-9.426,0-17.067-7.641-17.067-17.067V109.933C7.533,100.508,15.174,92.867,24.6,92.867z    " fill="#4e8fc7" data-original="#9d27b0" class=""/>
		<g>
			<path style="" d="M127,152.6h17.067c18.851,0,34.133,15.282,34.133,34.133v34.133     c0,18.851-15.282,34.133-34.133,34.133H127c-18.851,0-34.133-15.282-34.133-34.133v-34.133     C92.867,167.882,108.149,152.6,127,152.6z" fill="#ffffff" data-original="#ffffff" class=""/>
			<path style="" d="M163.642,365.933H203.8v-42.667c0.536-18.291-13.838-33.562-32.128-34.133H99.395     c-18.29,0.571-32.664,15.842-32.128,34.133v42.667H163.642z" fill="#ffffff" data-original="#ffffff" class=""/>
		</g>
	</g>
	<g>
		<path d="M486.4,85.333H25.6c-14.138,0-25.6,11.462-25.6,25.6v290.133c0,14.138,11.462,25.6,25.6,25.6h460.8    c14.138,0,25.6-11.462,25.6-25.6V110.933C512,96.795,500.539,85.333,486.4,85.333z M494.933,401.067    c0,4.713-3.82,8.533-8.533,8.533H264.533V136.533c0-4.713-3.821-8.533-8.533-8.533c-4.713,0-8.533,3.821-8.533,8.533V409.6H25.6    c-4.713,0-8.533-3.821-8.533-8.533V110.933c0-4.713,3.821-8.533,8.533-8.533h460.8c4.713,0,8.533,3.821,8.533,8.533V401.067z" fill="#000000" data-original="#000000" style="" class=""/>
		<path d="M128,264.533h17.067c23.552-0.028,42.638-19.114,42.667-42.667v-34.133c-0.028-23.552-19.114-42.638-42.667-42.667H128    c-23.552,0.028-42.638,19.114-42.667,42.667v34.133C85.362,245.419,104.448,264.505,128,264.533z M102.4,187.733    c0-14.138,11.462-25.6,25.6-25.6h17.067c14.138,0,25.6,11.462,25.6,25.6v34.133c0,14.138-11.462,25.6-25.6,25.6H128    c-14.138,0-25.6-11.462-25.6-25.6V187.733z" fill="#000000" data-original="#000000" style="" class=""/>
		<path d="M172.672,281.6h-72.277c-22.994,0.591-41.177,19.671-40.661,42.667v42.667c0,4.713,3.821,8.533,8.533,8.533    c4.713,0,8.533-3.82,8.533-8.533v-42.667c-0.515-13.571,10.027-25.009,23.595-25.6h72.277c13.567,0.591,24.11,12.029,23.595,25.6    V358.4h-31.625c-4.713,0-8.533,3.82-8.533,8.533s3.82,8.533,8.533,8.533H204.8c4.713,0,8.533-3.82,8.533-8.533v-42.667    C213.849,301.271,195.666,282.191,172.672,281.6z" fill="#000000" data-original="#000000" style="" class=""/>
		<path d="M452.267,153.6h-153.6c-4.713,0-8.533,3.82-8.533,8.533c0,4.713,3.82,8.533,8.533,8.533h153.6    c4.713,0,8.533-3.82,8.533-8.533C460.8,157.421,456.98,153.6,452.267,153.6z" fill="#000000" data-original="#000000" style="" class=""/>
		<path d="M452.267,204.8h-153.6c-4.713,0-8.533,3.82-8.533,8.533s3.82,8.533,8.533,8.533h153.6c4.713,0,8.533-3.821,8.533-8.533    S456.98,204.8,452.267,204.8z" fill="#000000" data-original="#000000" style="" class=""/>
		<path d="M452.267,256h-153.6c-4.713,0-8.533,3.821-8.533,8.533s3.82,8.533,8.533,8.533h153.6c4.713,0,8.533-3.82,8.533-8.533    S456.98,256,452.267,256z" fill="#000000" data-original="#000000" style="" class=""/>
		<path d="M452.267,307.2h-76.8c-4.713,0-8.533,3.821-8.533,8.533c0,4.713,3.821,8.533,8.533,8.533h76.8    c4.713,0,8.533-3.821,8.533-8.533C460.8,311.021,456.98,307.2,452.267,307.2z" fill="#000000" data-original="#000000" style="" class=""/>
	</g>
</g>
<g xmlns="http://www.w3.org/2000/svg">
</g>
<g xmlns="http://www.w3.org/2000/svg">
</g>
<g xmlns="http://www.w3.org/2000/svg">
</g>
<g xmlns="http://www.w3.org/2000/svg">
</g>
<g xmlns="http://www.w3.org/2000/svg">
</g>
<g xmlns="http://www.w3.org/2000/svg">
</g>
<g xmlns="http://www.w3.org/2000/svg">
</g>
<g xmlns="http://www.w3.org/2000/svg">
</g>
<g xmlns="http://www.w3.org/2000/svg">
</g>
<g xmlns="http://www.w3.org/2000/svg">
</g>
<g xmlns="http://www.w3.org/2000/svg">
</g>
<g xmlns="http://www.w3.org/2000/svg">
</g>
<g xmlns="http://www.w3.org/2000/svg">
</g>
<g xmlns="http://www.w3.org/2000/svg">
</g>
<g xmlns="http://www.w3.org/2000/svg">
</g>
</g></svg>
