<svg height="480pt" viewBox="0 0 480 480" width="480pt" xmlns="http://www.w3.org/2000/svg"><path d="m24 96h368c8.835938 0 16 7.164062 16 16v224h-400v-224c0-8.835938 7.164062-16 16-16zm0 0" fill="#75c1ff"/><path d="m8 336h400v64c0 8.835938-7.164062 16-16 16h-368c-8.835938 0-16-7.164062-16-16zm0 0" fill="#efefef"/><path d="m176 416h64v56h-64zm0 0" fill="#bcbcbc"/><path d="m472 136c0 70.691406-57.308594 128-128 128s-128-57.308594-128-128 57.308594-128 128-128 128 57.308594 128 128zm0 0" fill="#ffe675"/><path d="m400 328h-384v-216c.003906-4.417969 3.582031-7.996094 8-8h168v-16h-168c-13.25.015625-23.984375 10.75-24 24v288c.015625 13.25 10.75 23.984375 24 24h144v40h-32v16h144v-16h-32v-40h144c13.25-.015625 23.984375-10.75 24-24v-120h-16zm-168 136h-48v-40h48zm160-56h-368c-4.417969-.003906-7.996094-3.582031-8-8v-56h384v56c-.003906 4.417969-3.582031 7.996094-8 8zm0 0"/><path d="m224 376c0 8.835938-7.164062 16-16 16s-16-7.164062-16-16 7.164062-16 16-16 16 7.164062 16 16zm0 0"/><path d="m344 0c-75.109375 0-136 60.890625-136 136s60.890625 136 136 136 136-60.890625 136-136c-.082031-75.074219-60.925781-135.9179688-136-136zm8 87.855469c12.152344-.21875 24.027344-.910157 35.34375-2.082031 2.644531 13.917968 4.140625 28.03125 4.476562 42.195312h-39.820312zm0-15.996094v-53.832031c12.109375 5.871094 24 24.597656 31.632812 52.050781-10.136718.980469-20.742187 1.578125-31.632812 1.78125zm-16-53.832031v53.832031c-10.890625-.203125-21.496094-.800781-31.632812-1.78125 7.632812-27.453125 19.523437-46.179687 31.632812-52.050781zm0 69.828125v40.113281h-39.820312c.335937-14.164062 1.832031-28.277344 4.476562-42.195312 11.316406 1.171874 23.191406 1.863281 35.34375 2.082031zm-55.816406 40.113281h-55.777344c1.269531-19.277344 7.214844-37.957031 17.320312-54.421875 13.972657 4.804687 28.382813 8.238281 43.019532 10.25-2.703125 14.578125-4.230469 29.351563-4.5625 44.171875zm0 16c.328125 14.84375 1.855468 29.636719 4.5625 44.234375-14.636719 2.011719-29.046875 5.445313-43.019532 10.25-10.117187-16.484375-16.0625-35.183594-17.324218-54.484375zm15.992187 0h39.824219v40.175781c-12.152344.21875-24.027344.910157-35.34375 2.082031-2.648438-13.941406-4.144531-28.074218-4.480469-42.257812zm39.824219 56.171875v53.832031c-12.109375-5.871094-24-24.597656-31.632812-52.050781 10.136718-.980469 20.742187-1.578125 31.632812-1.78125zm16 53.832031v-53.832031c10.890625.203125 21.496094.800781 31.632812 1.78125-7.632812 27.453125-19.523437 46.179687-31.632812 52.050781zm0-69.828125v-40.175781h39.824219c-.335938 14.183594-1.832031 28.316406-4.480469 42.257812-11.316406-1.171874-23.191406-1.863281-35.34375-2.082031zm55.816406-40.175781h55.78125c-1.261718 19.300781-7.207031 38-17.324218 54.484375-13.972657-4.804687-28.382813-8.238281-43.019532-10.25 2.707032-14.597656 4.234375-29.390625 4.5625-44.234375zm0-16c-.332031-14.824219-1.859375-29.59375-4.5625-44.171875 14.636719-2.011719 29.046875-5.445313 43.019532-10.25 10.105468 16.464844 16.050781 35.144531 17.320312 54.421875zm28.960938-67.972656c-12.113282 3.757812-24.523438 6.492187-37.097656 8.179687-4.039063-16.847656-11.179688-32.796875-21.050782-47.035156 22.800782 6.90625 43.039063 20.429687 58.148438 38.855469zm-127.40625-38.855469c-9.871094 14.238281-17.011719 30.1875-21.050782 47.035156-12.574218-1.6875-24.984374-4.421875-37.097656-8.179687 15.109375-18.425782 35.347656-31.949219 58.148438-38.855469zm-58.148438 190.863281c12.113282-3.757812 24.523438-6.492187 37.097656-8.179687 4.039063 16.847656 11.179688 32.796875 21.050782 47.035156-22.800782-6.90625-43.039063-20.429687-58.148438-38.855469zm127.40625 38.855469c9.871094-14.238281 17.011719-30.1875 21.050782-47.035156 12.574218 1.6875 24.984374 4.421875 37.097656 8.179687-15.109375 18.425782-35.347656 31.949219-58.148438 38.855469zm0 0"/></svg>