<svg height="512pt" viewBox="-26 0 512 512.003" width="512pt" xmlns="http://www.w3.org/2000/svg"><path d="m301.875 7.566406c-42.785156 0-77.464844 34.746094-77.464844 77.613282v31.261718c5.175782-4.808594 14.277344-7.417968 21.464844-6.457031v-3.867187c0-3.074219 2.621094-5.503907 5.660156-5.273438 29.949219 2.15625 58.695313-7.378906 81.742188-22.464844 2.152344-1.40625 5-1.054687 6.75.824219 19.703125 21.222656 17.847656 20.398437 17.847656 23.171875v7.59375c7.878906-1.183594 16.605469 1.253906 21.464844 5.78125v-30.570312c0-42.867188-34.679688-77.613282-77.464844-77.613282zm0 0" fill="#576574"/><path d="m254.410156 85.179688c0-37.722657 26.863282-69.144532 62.464844-76.144532-4.855469-.957031-9.867188-1.46875-15-1.46875-42.785156 0-77.464844 34.746094-77.464844 77.613282v31.261718c5.175782-4.808594 14.277344-7.417968 21.464844-6.457031v-3.867187c0-3.074219 2.621094-5.503907 5.660156-5.273438.960938.070312 1.917969.125 2.875.171875zm0 0" fill="#3e4b5a"/><path d="m244.90625 150.460938v-43.710938c-13.449219-1.796875-27.507812 8.539062-27.507812 22.554688 0 13.714843 12.070312 24.914062 27.539062 22.570312-.011719-.472656-.03125-.941406-.03125-1.414062zm0 0" fill="#ffbeab"/><path d="m358.617188 106.542969v44.097656c0 .476563-.027344.949219-.035157 1.425781 15.574219 2.363282 27.769531-8.914062 27.769531-22.761718 0-13.871094-12.207031-25.09375-27.734374-22.761719zm0 0" fill="#ffbeab"/><path d="m244.90625 145.738281c-4.378906-4.183593-7.007812-10.035156-7.007812-16.433593 0-6.207032 2.761718-11.691407 7.007812-15.722657v-6.832031c-13.449219-1.800781-27.507812 8.539062-27.507812 22.554688 0 13.714843 12.070312 24.914062 27.539062 22.566406-.011719-.472656-.03125-.941406-.03125-1.414063zm0 0" fill="#f7af9f"/><path d="m379.117188 112.574219c-5.039063-4.714844-12.304688-7.261719-20.5-6.03125v44.097656c0 .476563-.027344.949219-.035157 1.425781 8.21875 1.246094 15.492188-1.308594 20.535157-6.03125zm0 0" fill="#f7af9f"/><path d="m259.085938 240.429688c23.507812 25.027343 61.976562 25.027343 85.488281 0l8.707031-9.269532-13.425781-5.210937c-2.96875-1.152344-4.925781-4.011719-4.925781-7.203125v-25.390625c-9.171876 6.339843-20.273438 10.0625-32.230469 10.0625-12.515625 0-23.511719-3.445313-32.507813-9.203125v24.253906c0 3.359375-2.058594 6.371094-5.183594 7.582031l-14.234374 5.53125zm0 0" fill="#ffbeab"/><path d="m300.054688 203.359375c-11.421876-.449219-21.507813-3.792969-29.863282-9.144531v24.253906c0 3.359375-2.058594 6.371094-5.183594 7.582031l-14.234374 5.53125 8.3125 8.847657c11.304687 12.035156 26.070312 18.265624 40.972656 18.726562v-55.796875zm0 0" fill="#f7af9f"/><path d="m420.558594 257.265625-69.511719-26.972656-8.957031 9.535156c-22.117188 23.546875-58.3125 23.546875-80.429688.003906l-8.589844-9.144531-68.421874 26.578125s-31.667969 13.042969-31.667969 49.21875v72.464844c0 7.988281 6.460937 14.464843 14.433593 14.464843h270.382813c7.972656 0 14.433594-6.476562 14.433594-14.464843v-72.464844c0-36.175781-31.671875-49.21875-31.671875-49.21875zm0 0" fill="#1dd1a1"/><path d="m286.734375 340.675781c-.191406-.078125-.382813-.15625-.574219-.230469l-55.707031-21.613281c-2.984375-1.160156-4.042969-4.808593-2.1875-7.417969 4.304687-6.042968 7.855469-12.65625 10.515625-19.707031.707031-1.878906 2.101562-3.40625 3.882812-4.332031 3.574219-1.859375 6.941407-4.121094 10.035157-6.777344 9.875-8.496094 16.179687-20.253906 17.90625-33.007812-3.167969-2.214844-6.167969-4.800782-8.945313-7.757813l-8.589844-9.144531-68.421874 26.578125s-31.667969 13.046875-31.667969 49.21875v72.46875c0 7.984375 6.460937 14.460937 14.433593 14.460937h166.144532c-8.664063-29.402343-31.878906-46.582031-46.824219-52.738281zm0 0" fill="#15ba8b"/><path d="m340.027344 76.597656c-1.75-1.882812-4.597656-2.234375-6.75-.824218-23.046875 15.085937-53.527344 24.617187-83.476563 22.464843-3.039062-.230469-5.660156 2.195313-5.660156 5.269531v46.367188c0 29.800781 23.304687 57.019531 58.558594 57.019531 31.378906 0 56.910156-25.578125 56.910156-57.019531v-50.109375c0-2.769531.117187-1.949219-19.582031-23.167969zm0 0" fill="#ffcdbf"/><path d="m274.144531 149.875v-52.351562c-8.046875 1.015624-16.214843 1.296874-24.34375.714843-3.039062-.230469-5.660156 2.195313-5.660156 5.269531v46.367188c0 29.800781 23.308594 57.019531 58.558594 57.019531 5.007812 0 9.859375-.65625 14.488281-1.878906-26.414062-6.640625-43.042969-29.96875-43.042969-55.140625zm0 0" fill="#ffbeab"/><path d="m113.832031 351.582031c23.511719 25.027344 61.980469 25.027344 85.488281 0l8.707032-9.269531-13.425782-5.210938c-2.96875-1.152343-4.925781-4.011718-4.925781-7.203124v-25.390626c-9.167969 6.339844-20.269531 10.058594-32.226562 10.058594-12.515625 0-23.515625-3.441406-32.511719-9.199218v24.253906c0 3.355468-2.058594 6.371094-5.183594 7.582031l-14.234375 5.53125zm0 0" fill="#ffbeab"/><path d="m154.871094 314.515625c-11.449219-.441406-21.558594-3.789063-29.933594-9.148437v24.253906c0 3.355468-2.058594 6.371094-5.183594 7.582031l-14.234375 5.53125 8.3125 8.847656c11.324219 12.054688 26.117188 18.285157 41.039063 18.726563zm0 0" fill="#f7af9f"/><path d="m275.308594 368.417969-69.511719-26.972657-8.957031 9.535157c-22.121094 23.546875-58.3125 23.546875-80.433594 0l-8.585938-9.140625-68.421874 26.578125s-31.671876 13.042969-31.671876 49.21875v72.464843c0 7.988282 6.460938 14.464844 14.433594 14.464844h270.386719c7.972656 0 14.433594-6.476562 14.433594-14.464844v-72.464843c0-36.175781-31.671875-49.21875-31.671875-49.21875zm0 0" fill="#54a0ff"/><path d="m37.730469 490.105469v-86.472657c0-22.1875 11.910156-35.660156 21.125-42.773437l-19.457031 7.558594s-31.671876 13.042969-31.671876 49.21875v72.464843c0 7.988282 6.460938 14.464844 14.433594 14.464844h30.003906c-7.972656 0-14.433593-6.476562-14.433593-14.460937zm0 0" fill="#338def"/><path d="m156.621094 118.71875c-42.785156 0-77.464844 34.746094-77.464844 77.613281v31.261719c5.175781-4.808594 14.277344-7.421875 21.46875-6.457031v-3.867188c0-3.074219 2.617188-5.503906 5.65625-5.273437 29.949219 2.15625 58.695312-7.378906 81.742188-22.464844 2.152343-1.40625 5-1.058594 6.75.824219 19.703124 21.21875 17.847656 20.398437 17.847656 23.167969v7.597656c7.878906-1.183594 16.605468 1.253906 21.464844 5.78125v-30.570313c0-42.867187-34.679688-77.613281-77.464844-77.613281zm0 0" fill="#576574"/><path d="m109.15625 196.332031c0-37.722656 26.863281-69.144531 62.464844-76.144531-4.851563-.957031-9.867188-1.46875-15-1.46875-42.785156 0-77.464844 34.746094-77.464844 77.613281v31.265625c5.175781-4.808594 14.277344-7.421875 21.46875-6.460937v-3.867188c0-3.074219 2.617188-5.503906 5.65625-5.273437.960938.070312 1.917969.125 2.875.171875zm0 0" fill="#3e4b5a"/><path d="m99.652344 261.613281v-43.710937c-13.449219-1.800782-27.507813 8.539062-27.507813 22.554687 0 13.714844 12.070313 24.914063 27.539063 22.570313-.011719-.472656-.03125-.945313-.03125-1.414063zm0 0" fill="#ffbeab"/><path d="m213.363281 217.695312v44.09375c0 .480469-.023437.953126-.035156 1.429688 15.574219 2.363281 27.773437-8.914062 27.773437-22.761719-.003906-13.871093-12.210937-25.09375-27.738281-22.761719zm0 0" fill="#ffbeab"/><path d="m99.652344 256.890625c-4.378906-4.183594-7.007813-10.035156-7.007813-16.433594 0-6.207031 2.765625-11.691406 7.007813-15.722656v-6.835937c-13.449219-1.796876-27.507813 8.542968-27.507813 22.558593 0 13.710938 12.070313 24.914063 27.539063 22.566407-.011719-.472657-.03125-.941407-.03125-1.414063zm0 0" fill="#f7af9f"/><path d="m233.863281 223.726562c-5.039062-4.714843-12.304687-7.261718-20.5-6.03125v44.09375c0 .480469-.023437.953126-.035156 1.429688 8.21875 1.246094 15.496094-1.308594 20.535156-6.03125zm0 0" fill="#f7af9f"/><path d="m194.773438 187.75c-1.75-1.882812-4.597657-2.234375-6.75-.824219-23.046876 15.082031-53.527344 24.617188-83.476563 22.464844-3.039063-.234375-5.660156 2.195313-5.660156 5.269531v46.367188c0 29.800781 23.304687 57.019531 58.558593 57.019531 31.378907 0 56.910157-25.582031 56.910157-57.019531v-50.109375c0-2.769531.121093-1.949219-19.582031-23.167969zm0 0" fill="#ffcdbf"/><path d="m128.890625 261.027344v-52.351563c-8.046875 1.015625-16.214844 1.296875-24.34375.710938-3.039063-.230469-5.660156 2.199219-5.660156 5.273437v46.367188c0 29.800781 23.308593 57.015625 58.558593 57.015625 5.007813 0 9.859376-.65625 14.488282-1.878907-26.414063-6.636718-43.042969-29.964843-43.042969-55.136718zm0 0" fill="#ffbeab"/><path d="m452.007812 325.101562c4.144532 0 7.5-3.355468 7.5-7.5v-11.75c0-40.664062-34.835937-55.453124-36.320312-56.0625-.046875-.019531-.09375-.039062-.140625-.058593l-69.511719-26.921875c-.003906 0-.007812 0-.011718-.003906l-11.179688-4.328126c-.082031-.03125-.136719-.109374-.136719-.199218v-18.097656c12.761719-10.035157 21.652344-24.773438 24.03125-41.585938 15.746094-1.390625 27.390625-14.289062 27.390625-29.585938 0-7.070312-2.515625-13.824218-7.011718-19.125v-24.917968c0-46.847656-38.117188-84.964844-84.964844-84.964844-46.851563 0-84.964844 38.117188-84.964844 84.964844v25.578125c-4.546875 5.238281-7.011719 11.660156-7.011719 18.464843 0 .339844.015625.675782.027344 1.011719-14.589844-11.789062-33.132813-18.867187-53.304687-18.867187-46.847657 0-84.964844 38.113281-84.964844 84.964844v25.578124c-4.542969 5.238282-7.011719 11.660157-7.011719 18.464844 0 15.230469 11.578125 28.199219 27.414063 29.585938 2.402343 16.351562 11.242187 32.121094 25.378906 42.617187v16.789063c0 .257812-.15625.484375-.394532.578125-9.941406 3.855469-70.445312 27.308593-80.359374 31.152343-.046876.019532-.09375.035157-.140626.054688-1.484374.609375-36.320312 15.402344-36.320312 56.066406v73.0625c0 12.09375 9.839844 21.933594 21.9375 21.933594h116.957031c4.144531 0 7.5-3.355469 7.5-7.5s-3.355469-7.5-7.5-7.5h-69.984375v-67.585938c0-4.144531-3.359375-7.5-7.5-7.5-4.144531 0-7.503906 3.355469-7.503906 7.5v67.585938h-31.96875c-3.820312 0-6.933594-3.109375-6.933594-6.933594v-73.0625c0-30.109375 25.394532-41.492187 26.980469-42.171875l63.613281-24.660156c5.921875 6.292969 21.28125 25.429687 50.804688 25.429687 17.324218 0 33.546875-7.097656 45.675781-19.984374l5.496094-5.839844 64.683593 25.050781c4.476563 1.964844 10.542969 6.1875 15.300782 11.398437 6.101562 6.726563 11.699218 16.726563 11.699218 30.777344v73.0625c0 3.824219-3.113281 6.9375-6.933593 6.9375h-31.96875v-67.589844c0-4.140624-3.355469-7.5-7.5-7.5s-7.5 3.359376-7.5 7.5v67.589844h-71.453125c-4.144532 0-7.5 3.355469-7.5 7.5 0 4.140625 3.355468 7.5 7.5 7.5h118.421875c12.089843 0 21.933593-9.839844 21.933593-21.9375v-73.0625c0-5.925781-.757812-11.289062-2.027343-16.152344h125.34375c12.035156 0 21.9375-9.800781 21.9375-21.9375v-26.308593c0-4.144531-3.359375-7.5-7.5-7.5-4.144531 0-7.503907 3.355469-7.503907 7.5v26.308593c0 3.824219-3.109374 6.933594-6.933593 6.933594h-31.96875v-67.585937c0-4.144531-3.355469-7.5-7.5-7.5-4.140625 0-7.5 3.355469-7.5 7.5v67.585937h-84.632813c-6.757812-11.320312-18.398437-20.949218-28.035156-24.90625-.046875-.019531-.09375-.039062-.144531-.058594-10.304688-3.988281-72.195313-27.957031-80.703125-31.25-.078125-.03125-.132813-.113281-.132813-.199218v-18.085938c12.59375-9.910156 21.625-24.609375 24.03125-41.597656 16.125-1.417969 27.625-14.910156 27.390625-29.769531l2.472656-.960938c6.914063 7.351563 21.917969 25.433594 50.800782 25.433594 17.324218 0 33.546875-7.097656 45.675781-19.988281l5.496094-5.839844 64.707031 25.058594c14.699219 6.339844 26.980469 22.429687 26.980469 42.167968v11.75c-.003907 4.140626 3.355469 7.5 7.496093 7.5zm-149.53125-126.152343c-30.214843 0-51.058593-23.328125-51.058593-49.410157 0-9.160156 0-20.160156 0-43.910156 28.492187 1.496094 58.914062-6.730468 84.160156-22.757812 9.121094 9.792968 14.488281 15.386718 16.308594 17.570312 0 56.519532.007812 48.1875-.023438 49.941406-.863281 28.59375-23.792969 48.566407-49.386719 48.566407zm-40.402343 19.628906c-14.65625 5.683594-4.777344 1.851563-17.632813 6.835937-.886718-1.542968-1.914062-3.007812-3.078125-4.375v-24.921874c0-13.792969-3.324219-26.820313-9.183593-38.351563 1.597656.402344 3.238281.683594 4.910156.832031 2.402344 16.351563 11.242187 32.117188 25.378906 42.617188v16.789062c0 .257813-.15625.480469-.394531.574219zm-40.4375 35.886719v-28.609375c7.078125 1.527343 11.742187 7.542969 11.742187 14.308593 0 6.84375-4.699218 12.78125-11.742187 14.300782zm14.78125-139.363282v28.238282c-7.078125-1.523438-11.742188-7.539063-11.742188-14.328125 0-6.621094 5.261719-12.0625 11.742188-13.910157zm130.46875 28.238282v-28.636719c15.574219 3.359375 15.632812 25.269531 0 28.636719zm-135.199219-58.375c0-38.578125 31.386719-69.964844 69.964844-69.964844s69.964844 31.386719 69.964844 69.964844v15.417968c-1.539063-.414062-3.117188-.714843-4.730469-.890624v-.015626c.003906-6.105468-1.015625-6.066406-21.59375-28.183593v-.003907c-4.25-4.566406-11.125-5.402343-16.339844-1.992187-23.445313 15.316406-52.167969 23.132813-78.808594 21.222656-.015625 0-.027343 0-.039062 0-5.933594-.429687-11.464844 3.382813-13.171875 9.167969-1.71875.222656-4.113282.792969-5.246094 1.140625zm-145.25 111.152344c0-38.578126 31.386719-69.964844 69.964844-69.964844 38.574218 0 69.960937 31.386718 69.960937 69.964844v15.417968c-1.539062-.414062-3.117187-.714844-4.726562-.890625v-.015625c0-6.144531-1.089844-6.140625-21.59375-28.1875-4.242188-4.554687-11.125-5.398437-16.34375-1.992187-23.050781 15.0625-51.722657 23.167969-78.804688 21.222656-5.925781-.453125-11.472656 3.300781-13.214843 9.167969-1.621094.210937-3.980469.753906-5.242188 1.140625zm4.730469 30.136718v28.238282c-14.429688-3.105469-16.738281-23.457032 0-28.238282zm15 34.4375c0-9.160156 0-20.160156 0-43.910156 29.042969 1.515625 59.429687-7.0625 84.160156-22.757812 9.125 9.792968 14.457031 15.355468 16.308594 17.566406v49.101562c0 26.890625-21.925781 49.410156-49.410157 49.410156-30.5625 0-51.058593-23.695312-51.058593-49.410156zm14.523437 83.628906 1.554688-.601562c6.058594-2.351562 9.972656-8.066406 9.972656-14.566406v-8.539063c8.011719 3.078125 16.679688 4.488281 25.007812 4.488281 8.683594 0 17.199219-1.792968 24.730469-4.9375v9.269532c0 5.902344 3.328125 11.710937 10.523438 14.496094-21.664063 23.015624-51.792969 21.636718-71.789063.390624zm180.960938-94.871093c-13.074219 0-25.117188-5.027344-35.710938-16.28125l1.558594-.605469c6.054688-2.347656 9.96875-8.0625 9.96875-14.558594v-8.542968c8.015625 3.074218 16.679688 4.488281 25.007812 4.488281 8.734376 0 17.28125-1.828125 24.730469-4.941407v9.269532c0 5.90625 3.328125 11.714844 10.523438 14.5-9.871094 10.484375-21.371094 16.671875-36.078125 16.671875zm0 0"/></svg>